<svg width="1274" height="318" viewBox="0 0 1274 318" fill="none" xmlns="http://www.w3.org/2000/svg">
<g clip-path="url(#clip0_2058_3202)">
<path d="M728.259 265.201C710.689 265.201 696.443 284.859 696.443 309.105C714.014 309.105 728.259 289.447 728.259 265.201Z" fill="#363636"/>
<path d="M698.371 312.209C698.371 333.517 710.889 350.792 726.33 350.792C726.33 329.484 713.814 312.209 698.371 312.209Z" fill="#3B3B3B"/>
<path d="M1109.72 347.688C1109.72 329.809 1099.22 315.314 1086.26 315.314C1086.26 333.194 1096.77 347.688 1109.72 347.688Z" fill="#535353"/>
<path d="M727.131 178.061C710.803 178.061 697.564 196.327 697.564 218.861C713.892 218.861 727.131 200.592 727.131 178.061Z" fill="#535353"/>
<path d="M1107.63 167.413C1107.63 152.717 1099 140.805 1088.35 140.805C1088.35 155.5 1096.98 167.413 1107.63 167.413Z" fill="#3B3B3B"/>
<path d="M1271.05 225.732C1257.38 225.732 1246.3 241.022 1246.3 259.88C1259.97 259.882 1271.05 244.593 1271.05 225.732Z" fill="#363636"/>
<path d="M1010.9 52.5547C1000.61 52.5547 992.26 64.0696 992.26 78.2773C1002.55 78.2773 1010.9 66.7598 1010.9 52.5547Z" fill="#363636"/>
<path d="M693.463 47.0078C678.731 47.0078 666.789 63.4875 666.789 83.8168C681.521 83.8168 693.463 67.337 693.463 47.0078Z" fill="#535353"/>
<path d="M1084.17 306.225C1099.44 306.225 1111.81 289.148 1111.81 268.086C1096.55 268.086 1084.17 285.162 1084.17 306.225Z" fill="#3B3B3B"/>
<path d="M953.055 308.882C953.055 284.878 938.953 265.422 921.561 265.422C921.561 289.422 935.662 308.882 953.055 308.882Z" fill="#535353"/>
<path d="M1078.55 313.982C1064.53 313.982 1053.16 329.667 1053.16 349.018C1067.18 349.018 1078.55 333.333 1078.55 313.982Z" fill="#3B3B3B"/>
<path d="M1022.31 302.896C1034.91 302.896 1045.13 288.799 1045.13 271.408C1032.53 271.408 1022.31 285.507 1022.31 302.896Z" fill="#535353"/>
<path d="M1079.51 306.001C1079.51 285.181 1067.28 268.307 1052.2 268.307C1052.19 289.124 1064.42 306.001 1079.51 306.001Z" fill="#363636"/>
<path d="M829.971 302.234C842.04 302.234 851.824 288.731 851.824 272.078C839.755 272.076 829.971 285.578 829.971 302.234Z" fill="#535353"/>
<path d="M1075.34 211.541C1075.34 197.091 1066.85 185.377 1056.38 185.377C1056.38 199.825 1064.86 211.541 1075.34 211.541Z" fill="#3B3B3B"/>
<path d="M1047.7 262.096C1047.7 240.789 1035.18 223.514 1019.74 223.514C1019.74 244.824 1032.25 262.096 1047.7 262.096Z" fill="#535353"/>
<path d="M723.595 94.2422C711.17 94.2422 701.1 108.14 701.1 125.286C713.524 125.286 723.595 111.388 723.595 94.2422Z" fill="#3B3B3B"/>
<path d="M700.621 137.926C700.621 155.805 711.124 170.299 724.08 170.299C724.08 152.42 713.577 137.926 700.621 137.926Z" fill="#363636"/>
<path d="M1242.28 264.538C1242.28 240.535 1228.19 221.078 1210.79 221.078C1210.79 245.079 1224.89 264.538 1242.28 264.538Z" fill="#3B3B3B"/>
<path d="M1206.94 304.447C1206.94 285.344 1195.71 269.855 1181.87 269.855C1181.87 288.961 1193.09 304.447 1206.94 304.447Z" fill="#363636"/>
<path d="M1080.48 41.2431C1080.48 18.9543 1067.38 0.886719 1051.23 0.886719C1051.23 23.173 1064.32 41.2431 1080.48 41.2431Z" fill="#3B3B3B"/>
<path d="M1088.99 210.877C1098.93 210.877 1106.99 199.758 1106.99 186.043C1097.05 186.043 1088.99 197.16 1088.99 210.877Z" fill="#363636"/>
<path d="M1111.81 261.875C1111.81 240.812 1099.44 223.736 1084.17 223.736C1084.17 244.801 1096.55 261.875 1111.81 261.875Z" fill="#3B3B3B"/>
<path d="M657.149 255.443C657.149 241.483 648.948 230.164 638.832 230.164C638.832 244.124 647.033 255.443 657.149 255.443Z" fill="#3B3B3B"/>
<path d="M1236.66 345.468C1236.66 330.036 1227.6 317.527 1216.42 317.527C1216.42 332.959 1225.48 345.468 1236.66 345.468Z" fill="#3B3B3B"/>
<path d="M1271.53 313.762C1257.33 313.762 1245.82 329.645 1245.82 349.241C1260.02 349.238 1271.53 333.355 1271.53 313.762Z" fill="#3B3B3B"/>
<path d="M1212.39 306.663C1228.01 306.663 1240.67 289.19 1240.67 267.637C1225.06 267.637 1212.39 285.11 1212.39 306.663Z" fill="#535353"/>
<path d="M573.596 212.425C584.778 212.425 593.842 199.916 593.842 184.484C582.66 184.484 573.596 196.993 573.596 212.425Z" fill="#3B3B3B"/>
<path d="M1269.44 213.316C1269.44 196.906 1259.8 183.602 1247.91 183.602C1247.91 200.012 1257.55 213.316 1269.44 213.316Z" fill="#3B3B3B"/>
<path d="M1024.88 210.654C1034.64 210.654 1042.55 199.733 1042.55 186.264C1032.79 186.264 1024.88 197.182 1024.88 210.654Z" fill="#363636"/>
<path d="M1218.19 32.5959C1227.41 32.5959 1234.9 22.2713 1234.9 9.53516C1225.67 9.53516 1218.19 19.8598 1218.19 32.5959Z" fill="#535353"/>
<path d="M855.201 262.541C855.201 240.743 842.394 223.07 826.6 223.07C826.6 244.871 839.404 262.541 855.201 262.541Z" fill="#3B3B3B"/>
<path d="M1142.02 214.866C1142.02 196.742 1131.37 182.049 1118.24 182.049C1118.24 200.173 1128.88 214.866 1142.02 214.866Z" fill="#3B3B3B"/>
<path d="M1147.48 218.861C1163.81 218.861 1177.05 200.595 1177.05 178.061C1160.72 178.061 1147.48 196.327 1147.48 218.861Z" fill="#3B3B3B"/>
<path d="M1077.26 138.363C1064.66 138.363 1054.45 152.46 1054.45 169.851C1067.05 169.851 1077.26 155.754 1077.26 138.363Z" fill="#535353"/>
<path d="M1024.24 122.842C1034.71 122.842 1043.2 111.128 1043.2 96.6777C1032.73 96.6777 1024.24 108.391 1024.24 122.842Z" fill="#3B3B3B"/>
<path d="M1049.62 176.06C1049.62 151.812 1035.38 132.156 1017.8 132.156C1017.81 156.402 1032.05 176.06 1049.62 176.06Z" fill="#363636"/>
<path d="M756.215 315.314C743.259 315.314 732.756 329.809 732.756 347.688C745.712 347.688 756.215 333.194 756.215 315.314Z" fill="#3B3B3B"/>
<path d="M828.848 215.088C842.159 215.088 852.95 200.196 852.95 181.826C839.639 181.826 828.848 196.718 828.848 215.088Z" fill="#3B3B3B"/>
<path d="M1075.01 52.7754C1064.89 52.7754 1056.69 64.0915 1056.69 78.054C1066.81 78.054 1075.01 66.7353 1075.01 52.7754Z" fill="#363636"/>
<path d="M1087.54 124.178C1099.08 124.178 1108.43 111.271 1108.43 95.3516C1096.9 95.3516 1087.54 108.258 1087.54 124.178Z" fill="#363636"/>
<path d="M1081.76 131.716C1081.76 107.468 1067.52 87.8125 1049.95 87.8125C1049.95 112.058 1064.19 131.716 1081.76 131.716Z" fill="#3B3B3B"/>
<path d="M1274.42 132.379C1257.03 132.379 1242.93 151.838 1242.93 175.841C1260.32 175.841 1274.42 156.382 1274.42 132.379Z" fill="#363636"/>
<path d="M955.467 306.44C970.908 306.44 983.426 289.165 983.426 267.857C967.985 267.857 955.467 285.132 955.467 306.44Z" fill="#363636"/>
<path d="M661.971 84.7018C661.971 63.3941 649.453 46.1191 634.012 46.1191C634.014 67.4295 646.53 84.7018 661.971 84.7018Z" fill="#535353"/>
<path d="M629.836 46.1191C614.395 46.1191 601.877 63.3941 601.877 84.7018C617.318 84.7018 629.836 67.4295 629.836 46.1191Z" fill="#3B3B3B"/>
<path d="M756.379 303.56C756.379 285.435 745.732 270.742 732.598 270.742C732.598 288.867 743.245 303.56 756.379 303.56Z" fill="#535353"/>
<path d="M566.847 42.1301C566.847 18.8628 553.178 0 536.316 0C536.316 23.2673 549.985 42.1301 566.847 42.1301Z" fill="#363636"/>
<path d="M949.52 225.955C936.031 225.955 925.096 241.046 925.096 259.661C938.585 259.661 949.52 244.57 949.52 225.955Z" fill="#3B3B3B"/>
<path d="M951.609 218.193C951.609 196.395 938.804 178.725 923.008 178.725C923.008 200.523 935.812 218.193 951.609 218.193Z" fill="#535353"/>
<path d="M895.85 211.32C906.143 211.32 914.489 199.805 914.489 185.598C904.193 185.598 895.85 197.113 895.85 211.32Z" fill="#3B3B3B"/>
<path d="M665.025 263.651C681.709 263.651 695.234 244.987 695.234 221.965C678.55 221.962 665.025 240.626 665.025 263.651Z" fill="#363636"/>
<path d="M896.494 121.736C906.078 121.736 913.848 111.014 913.848 97.7871C904.263 97.7871 896.494 108.509 896.494 121.736Z" fill="#535353"/>
<path d="M947.27 140.361C936.266 140.361 927.346 152.671 927.346 167.858C938.348 167.858 947.27 155.548 947.27 140.361Z" fill="#3B3B3B"/>
<path d="M916.098 169.191C916.098 152.535 906.313 139.035 894.244 139.035C894.246 155.688 904.03 169.191 916.098 169.191Z" fill="#363636"/>
<path d="M598.339 174.288C598.339 151.999 585.246 133.932 569.094 133.932C569.094 156.218 582.188 174.288 598.339 174.288Z" fill="#363636"/>
<path d="M626.3 124.178C626.3 108.258 616.948 95.3516 605.412 95.3516C605.41 111.271 614.764 124.178 626.3 124.178Z" fill="#535353"/>
<path d="M702.064 35.255C713.424 35.255 722.633 22.5473 722.633 6.87305C711.274 6.87305 702.064 19.5782 702.064 35.255Z" fill="#535353"/>
<path d="M1145.23 41.9087C1145.23 18.8866 1131.7 0.222656 1115.02 0.222656C1115.02 23.2447 1128.54 41.9087 1145.23 41.9087Z" fill="#363636"/>
<path d="M1089.31 33.0407C1098.9 33.0407 1106.67 22.3184 1106.67 9.0918C1097.08 9.0918 1089.31 19.8141 1089.31 33.0407Z" fill="#363636"/>
<path d="M1113.9 87.3667C1113.9 63.1183 1099.65 43.4629 1082.08 43.4629C1082.08 67.7087 1096.33 87.3667 1113.9 87.3667Z" fill="#3B3B3B"/>
<path d="M817.435 53.4375C807.851 53.4375 800.082 64.1598 800.082 77.3864C809.666 77.3864 817.435 66.6641 817.435 53.4375Z" fill="#363636"/>
<path d="M820.975 126.613C820.975 107.998 810.04 92.9102 796.551 92.9102C796.551 111.525 807.486 126.613 820.975 126.613Z" fill="#535353"/>
<path d="M691.858 125.95C691.858 108.07 681.355 93.5762 668.398 93.5762C668.397 111.455 678.9 125.95 691.858 125.95Z" fill="#535353"/>
<path d="M667.756 171.18C681.423 171.18 692.5 155.891 692.5 137.033C678.835 137.033 667.756 152.323 667.756 171.18Z" fill="#3B3B3B"/>
<path d="M637.064 124.841C649.134 124.841 658.918 111.341 658.918 94.6855C646.849 94.6855 637.064 108.188 637.064 124.841Z" fill="#363636"/>
<path d="M598.339 262.983C598.339 240.695 585.246 222.627 569.094 222.627C569.094 244.916 582.188 262.983 598.339 262.983Z" fill="#3B3B3B"/>
<path d="M1153.11 33.7043C1163.22 33.7043 1171.42 22.3857 1171.42 8.42578C1161.31 8.42578 1153.11 19.7419 1153.11 33.7043Z" fill="#3B3B3B"/>
<path d="M1270.4 49.2266C1257.44 49.2266 1246.94 63.7209 1246.94 81.6C1259.9 81.6 1270.4 67.1056 1270.4 49.2266Z" fill="#363636"/>
<path d="M1267.03 121.291C1267.03 108.555 1259.55 98.2305 1250.32 98.2305C1250.32 110.967 1257.8 121.291 1267.03 121.291Z" fill="#3B3B3B"/>
<path d="M736.135 76.9416C745.363 76.9416 752.846 66.617 752.846 53.8809C743.616 53.8809 736.135 64.2055 736.135 76.9416Z" fill="#535353"/>
<path d="M787.068 79.826C787.068 63.9065 777.716 51 766.18 51C766.18 66.9195 775.532 79.826 787.068 79.826Z" fill="#363636"/>
<path d="M759.432 130.383C759.432 107.604 746.051 89.1387 729.545 89.1387C729.545 111.915 742.926 130.383 759.432 130.383Z" fill="#3B3B3B"/>
<path d="M764.25 126.835C777.917 126.835 788.995 111.545 788.995 92.6875C775.329 92.6875 764.25 107.977 764.25 126.835Z" fill="#3B3B3B"/>
<path d="M820.011 227.281C807.586 227.281 797.516 241.179 797.516 258.325C809.938 258.325 820.011 244.427 820.011 227.281Z" fill="#3B3B3B"/>
<path d="M818.721 212.207C818.721 197.021 809.801 184.711 798.797 184.711C798.797 199.897 807.717 212.207 818.721 212.207Z" fill="#363636"/>
<path d="M766.342 228.617C766.342 244.294 775.55 256.999 786.91 256.999C786.91 241.322 777.702 228.617 766.342 228.617Z" fill="#3B3B3B"/>
<path d="M881.551 298.907C881.551 285.926 873.926 275.402 864.52 275.402C864.518 288.384 872.145 298.907 881.551 298.907Z" fill="#363636"/>
<path d="M884.925 226.398C871.792 226.398 861.145 241.092 861.145 259.216C874.278 259.216 884.925 244.523 884.925 226.398Z" fill="#535353"/>
<path d="M985.03 86.9245C985.03 63.1666 971.072 43.9062 953.857 43.9062C953.856 67.6641 967.813 86.9245 985.03 86.9245Z" fill="#3B3B3B"/>
<path d="M883.318 139.918C871.96 139.918 862.75 152.626 862.75 168.3C874.11 168.3 883.318 155.592 883.318 139.918Z" fill="#3B3B3B"/>
<path d="M825.312 131.268C842.529 131.268 856.485 112.008 856.485 88.25C839.268 88.25 825.312 107.51 825.312 131.268Z" fill="#3B3B3B"/>
<path d="M1236.34 78.9409C1236.34 64 1227.56 51.8887 1216.74 51.8887C1216.74 66.8296 1225.51 78.9409 1236.34 78.9409Z" fill="#535353"/>
<path d="M1214 127.058C1227.85 127.058 1239.07 111.57 1239.07 92.4668C1225.23 92.4668 1214 107.955 1214 127.058Z" fill="#3B3B3B"/>
<path d="M758.629 217.968C758.629 196.415 745.967 178.941 730.35 178.941C730.348 200.497 743.01 217.968 758.629 217.968Z" fill="#3B3B3B"/>
<path d="M597.855 84.9252C597.855 63.3722 585.195 45.8984 569.576 45.8984C569.576 67.4514 582.237 84.9252 597.855 84.9252Z" fill="#535353"/>
<path d="M979.405 256.551C979.405 241.365 970.485 229.055 959.48 229.055C959.48 244.241 968.4 256.551 979.405 256.551Z" fill="#363636"/>
<path d="M1016.69 221.961C1000 221.961 986.479 240.625 986.479 263.647C1003.16 263.65 1016.69 244.983 1016.69 221.961Z" fill="#3B3B3B"/>
<path d="M956.426 216.417C970.802 216.417 982.456 200.335 982.456 180.496C968.081 180.496 956.426 196.578 956.426 216.417Z" fill="#3B3B3B"/>
<path d="M1015.72 217.968C1015.72 196.415 1003.06 178.941 987.439 178.941C987.439 200.497 1000.1 217.968 1015.72 217.968Z" fill="#3B3B3B"/>
<path d="M1020.06 39.9133C1035.14 39.9133 1047.37 23.0359 1047.37 2.21875C1032.29 2.21875 1020.06 19.0961 1020.06 39.9133Z" fill="#3B3B3B"/>
<path d="M563.954 137.033C550.286 137.033 539.209 152.323 539.209 171.18C552.876 171.18 563.954 155.893 563.954 137.033Z" fill="#3B3B3B"/>
<path d="M529.888 168.521C529.888 152.602 520.536 139.695 509 139.695C509 155.615 518.352 168.521 529.888 168.521Z" fill="#363636"/>
<path d="M566.044 129.717C566.044 107.673 553.095 89.8047 537.121 89.8047C537.121 111.846 550.07 129.717 566.044 129.717Z" fill="#3B3B3B"/>
<path d="M821.295 304.447C821.295 285.344 810.072 269.855 796.229 269.855C796.229 288.961 807.45 304.447 821.295 304.447Z" fill="#3B3B3B"/>
<path d="M666.471 350.351C681.556 350.351 693.786 333.473 693.786 312.656C678.701 312.654 666.471 329.531 666.471 350.351Z" fill="#535353"/>
<path d="M893.6 37.0328C906.378 37.0328 916.739 22.7373 916.739 5.10352C903.96 5.10352 893.6 19.399 893.6 37.0328Z" fill="#3B3B3B"/>
<path d="M914.327 78.054C914.327 64.0941 906.125 52.7754 896.01 52.7754C896.008 66.7353 904.209 78.054 914.327 78.054Z" fill="#3B3B3B"/>
<path d="M949.838 48.1172C935.995 48.1172 924.771 63.6055 924.771 82.7084C938.615 82.7084 949.838 67.2226 949.838 48.1172Z" fill="#363636"/>
<path d="M957.873 37.0328C970.651 37.0328 981.012 22.7373 981.012 5.10352C968.234 5.10352 957.873 19.399 957.873 37.0328Z" fill="#363636"/>
<path d="M945.984 33.0407C945.984 19.8141 938.215 9.0918 928.631 9.0918C928.631 22.3184 936.4 33.0407 945.984 33.0407Z" fill="#535353"/>
<path d="M1211.11 219.742C1228.15 219.742 1241.96 200.681 1241.96 177.168C1224.93 177.168 1211.11 196.23 1211.11 219.742Z" fill="#3B3B3B"/>
<path d="M1206.29 214.866C1206.29 196.742 1195.65 182.049 1182.51 182.049C1182.51 200.173 1193.16 214.866 1206.29 214.866Z" fill="#3B3B3B"/>
<path d="M888.136 41.9087C888.136 18.8866 874.611 0.222656 857.928 0.222656C857.928 23.2447 871.453 41.9087 888.136 41.9087Z" fill="#3B3B3B"/>
<path d="M886.531 46.7852C871.621 46.7852 859.535 63.4637 859.535 84.0382C874.445 84.0382 886.531 67.3597 886.531 46.7852Z" fill="#3B3B3B"/>
<path d="M1175.6 172.516C1175.6 152.187 1163.66 135.707 1148.92 135.707C1148.93 156.036 1160.87 172.516 1175.6 172.516Z" fill="#3B3B3B"/>
<path d="M1206.94 127.058C1206.94 107.953 1195.71 92.4668 1181.87 92.4668C1181.87 111.572 1193.09 127.058 1206.94 127.058Z" fill="#3B3B3B"/>
<path d="M825.473 310.211C825.473 333.724 839.286 352.785 856.325 352.785C856.325 329.273 842.512 310.211 825.473 310.211Z" fill="#3B3B3B"/>
<path d="M822.739 312.209C807.298 312.209 794.779 329.484 794.779 350.792C810.22 350.792 822.739 333.519 822.739 312.209Z" fill="#3B3B3B"/>
<path d="M1143.14 224.846C1128.77 224.846 1117.11 240.928 1117.11 260.767C1131.49 260.767 1143.14 244.684 1143.14 224.846Z" fill="#3B3B3B"/>
<path d="M1014.12 136.811C1000.27 136.811 989.049 152.299 989.049 171.402C1002.89 171.402 1014.12 155.916 1014.12 136.811Z" fill="#535353"/>
<path d="M1141.38 125.286C1141.38 108.14 1131.3 94.2422 1118.88 94.2422C1118.88 111.388 1128.95 125.286 1141.38 125.286Z" fill="#3B3B3B"/>
<path d="M1146.2 43.2402C1128.45 43.2402 1114.06 63.0944 1114.06 87.5881C1131.81 87.5881 1146.2 67.7313 1146.2 43.2402Z" fill="#3B3B3B"/>
<path d="M1147.32 130.383C1163.83 130.383 1177.21 111.918 1177.21 89.1387C1160.7 89.1387 1147.32 107.604 1147.32 130.383Z" fill="#363636"/>
</g>
<defs>
<clipPath id="clip0_2058_3202">
<rect width="1274" height="318" fill="white"/>
</clipPath>
</defs>
</svg>
