<svg width="484" height="455" viewBox="0 0 484 455" fill="none" xmlns="http://www.w3.org/2000/svg">
<rect width="484" height="455" rx="11" fill="#F9E3B4"/>
<path d="M63.3849 62V38.7273H71.6804C73.491 38.7273 74.991 39.0568 76.1804 39.7159C77.3698 40.375 78.2599 41.2765 78.8509 42.4205C79.4418 43.5568 79.7372 44.8371 79.7372 46.2614C79.7372 47.6932 79.438 48.9811 78.8395 50.125C78.2486 51.2614 77.3546 52.1629 76.1577 52.8295C74.9683 53.4886 73.4721 53.8182 71.669 53.8182H65.9645V50.8409H71.3509C72.4948 50.8409 73.4228 50.6439 74.1349 50.25C74.8471 49.8485 75.3698 49.303 75.7031 48.6136C76.0365 47.9242 76.2031 47.1402 76.2031 46.2614C76.2031 45.3826 76.0365 44.6023 75.7031 43.9205C75.3698 43.2386 74.8433 42.7045 74.1236 42.3182C73.4115 41.9318 72.4721 41.7386 71.3054 41.7386H66.8963V62H63.3849ZM94.6378 54.7614V44.5455H98.0469V62H94.706V58.9773H94.5241C94.1226 59.9091 93.4787 60.6856 92.5923 61.3068C91.7135 61.9205 90.6188 62.2273 89.3082 62.2273C88.187 62.2273 87.1946 61.9811 86.331 61.4886C85.4749 60.9886 84.8007 60.25 84.3082 59.2727C83.8234 58.2955 83.581 57.0871 83.581 55.6477V44.5455H86.9787V55.2386C86.9787 56.428 87.3082 57.375 87.9673 58.0795C88.6264 58.7841 89.4825 59.1364 90.5355 59.1364C91.1719 59.1364 91.8045 58.9773 92.4332 58.6591C93.0696 58.3409 93.5961 57.8598 94.0128 57.2159C94.437 56.572 94.6454 55.7538 94.6378 54.7614ZM102.885 62V38.7273H106.283V47.375H106.487C106.684 47.0114 106.968 46.5909 107.339 46.1136C107.711 45.6364 108.226 45.2197 108.885 44.8636C109.544 44.5 110.415 44.3182 111.499 44.3182C112.908 44.3182 114.165 44.6742 115.271 45.3864C116.377 46.0985 117.245 47.125 117.874 48.4659C118.51 49.8068 118.828 51.4205 118.828 53.3068C118.828 55.1932 118.514 56.8106 117.885 58.1591C117.256 59.5 116.393 60.5341 115.294 61.2614C114.196 61.9811 112.942 62.3409 111.533 62.3409C110.472 62.3409 109.605 62.1629 108.93 61.8068C108.264 61.4508 107.741 61.0341 107.362 60.5568C106.983 60.0795 106.692 59.6553 106.487 59.2841H106.203V62H102.885ZM106.214 53.2727C106.214 54.5 106.393 55.5758 106.749 56.5C107.105 57.4242 107.62 58.1477 108.294 58.6705C108.968 59.1856 109.794 59.4432 110.771 59.4432C111.786 59.4432 112.635 59.1742 113.317 58.6364C113.999 58.0909 114.514 57.3523 114.862 56.4205C115.218 55.4886 115.396 54.4394 115.396 53.2727C115.396 52.1212 115.222 51.0871 114.874 50.1705C114.533 49.2538 114.018 48.5303 113.328 48C112.646 47.4697 111.794 47.2045 110.771 47.2045C109.786 47.2045 108.953 47.4583 108.271 47.9659C107.597 48.4735 107.086 49.1818 106.737 50.0909C106.389 51 106.214 52.0606 106.214 53.2727ZM126.041 38.7273V62H122.643V38.7273H126.041ZM130.612 62V44.5455H134.01V62H130.612ZM132.328 41.8523C131.737 41.8523 131.23 41.6553 130.805 41.2614C130.389 40.8598 130.18 40.3826 130.18 39.8295C130.18 39.2689 130.389 38.7917 130.805 38.3977C131.23 37.9962 131.737 37.7955 132.328 37.7955C132.919 37.7955 133.423 37.9962 133.839 38.3977C134.264 38.7917 134.476 39.2689 134.476 39.8295C134.476 40.3826 134.264 40.8598 133.839 41.2614C133.423 41.6553 132.919 41.8523 132.328 41.8523ZM151.661 48.8068L148.581 49.3523C148.452 48.9583 148.248 48.5833 147.967 48.2273C147.695 47.8712 147.323 47.5795 146.854 47.3523C146.384 47.125 145.797 47.0114 145.092 47.0114C144.13 47.0114 143.327 47.2273 142.683 47.6591C142.039 48.0833 141.717 48.6326 141.717 49.3068C141.717 49.8902 141.933 50.3598 142.365 50.7159C142.797 51.072 143.494 51.3636 144.456 51.5909L147.229 52.2273C148.835 52.5985 150.032 53.1705 150.82 53.9432C151.607 54.7159 152.001 55.7197 152.001 56.9545C152.001 58 151.698 58.9318 151.092 59.75C150.494 60.5606 149.657 61.197 148.581 61.6591C147.513 62.1212 146.274 62.3523 144.865 62.3523C142.911 62.3523 141.316 61.9356 140.081 61.1023C138.846 60.2614 138.089 59.0682 137.808 57.5227L141.092 57.0227C141.297 57.8788 141.717 58.5265 142.354 58.9659C142.99 59.3977 143.82 59.6136 144.842 59.6136C145.956 59.6136 146.846 59.3826 147.513 58.9205C148.179 58.4508 148.513 57.8788 148.513 57.2045C148.513 56.6591 148.308 56.2008 147.899 55.8295C147.498 55.4583 146.88 55.178 146.047 54.9886L143.092 54.3409C141.464 53.9697 140.259 53.3788 139.479 52.5682C138.706 51.7576 138.32 50.7311 138.32 49.4886C138.32 48.4583 138.607 47.5568 139.183 46.7841C139.759 46.0114 140.554 45.4091 141.57 44.9773C142.585 44.5379 143.748 44.3182 145.058 44.3182C146.945 44.3182 148.429 44.7273 149.513 45.5455C150.596 46.3561 151.312 47.4432 151.661 48.8068ZM159.135 51.6364V62H155.737V38.7273H159.089V47.3864H159.305C159.714 46.447 160.339 45.7008 161.18 45.1477C162.021 44.5947 163.12 44.3182 164.476 44.3182C165.673 44.3182 166.718 44.5644 167.612 45.0568C168.514 45.5492 169.211 46.2841 169.703 47.2614C170.203 48.2311 170.453 49.4432 170.453 50.8977V62H167.055V51.3068C167.055 50.0265 166.726 49.0341 166.067 48.3295C165.408 47.6174 164.491 47.2614 163.317 47.2614C162.514 47.2614 161.794 47.4318 161.158 47.7727C160.529 48.1136 160.033 48.6136 159.669 49.2727C159.313 49.9242 159.135 50.7121 159.135 51.6364ZM185.604 68.5455C185.096 68.5455 184.634 68.5038 184.217 68.4205C183.801 68.3447 183.49 68.2614 183.286 68.1705L184.104 65.3864C184.725 65.553 185.278 65.625 185.763 65.6023C186.248 65.5795 186.676 65.3977 187.047 65.0568C187.426 64.7159 187.759 64.1591 188.047 63.3864L188.467 62.2273L182.081 44.5455H185.717L190.138 58.0909H190.32L194.74 44.5455H198.388L191.195 64.3295C190.861 65.2386 190.437 66.0076 189.922 66.6364C189.407 67.2727 188.793 67.75 188.081 68.0682C187.369 68.3864 186.543 68.5455 185.604 68.5455ZM208.339 62.3523C206.703 62.3523 205.275 61.9773 204.055 61.2273C202.836 60.4773 201.889 59.428 201.214 58.0795C200.54 56.7311 200.203 55.1553 200.203 53.3523C200.203 51.5417 200.54 49.9583 201.214 48.6023C201.889 47.2462 202.836 46.1932 204.055 45.4432C205.275 44.6932 206.703 44.3182 208.339 44.3182C209.976 44.3182 211.404 44.6932 212.624 45.4432C213.843 46.1932 214.79 47.2462 215.464 48.6023C216.139 49.9583 216.476 51.5417 216.476 53.3523C216.476 55.1553 216.139 56.7311 215.464 58.0795C214.79 59.428 213.843 60.4773 212.624 61.2273C211.404 61.9773 209.976 62.3523 208.339 62.3523ZM208.351 59.5C209.411 59.5 210.29 59.2197 210.987 58.6591C211.684 58.0985 212.199 57.3523 212.533 56.4205C212.874 55.4886 213.044 54.4621 213.044 53.3409C213.044 52.2273 212.874 51.2045 212.533 50.2727C212.199 49.3333 211.684 48.5795 210.987 48.0114C210.29 47.4432 209.411 47.1591 208.351 47.1591C207.283 47.1591 206.396 47.4432 205.692 48.0114C204.995 48.5795 204.476 49.3333 204.135 50.2727C203.802 51.2045 203.635 52.2273 203.635 53.3409C203.635 54.4621 203.802 55.4886 204.135 56.4205C204.476 57.3523 204.995 58.0985 205.692 58.6591C206.396 59.2197 207.283 59.5 208.351 59.5ZM231.325 54.7614V44.5455H234.734V62H231.393V58.9773H231.212C230.81 59.9091 230.166 60.6856 229.28 61.3068C228.401 61.9205 227.306 62.2273 225.996 62.2273C224.875 62.2273 223.882 61.9811 223.018 61.4886C222.162 60.9886 221.488 60.25 220.996 59.2727C220.511 58.2955 220.268 57.0871 220.268 55.6477V44.5455H223.666V55.2386C223.666 56.428 223.996 57.375 224.655 58.0795C225.314 58.7841 226.17 59.1364 227.223 59.1364C227.859 59.1364 228.492 58.9773 229.121 58.6591C229.757 58.3409 230.284 57.8598 230.7 57.2159C231.125 56.572 231.333 55.7538 231.325 54.7614ZM239.3 62V44.5455H242.584V47.3182H242.766C243.084 46.3788 243.644 45.6402 244.447 45.1023C245.258 44.5568 246.175 44.2841 247.197 44.2841C247.41 44.2841 247.66 44.2917 247.947 44.3068C248.243 44.322 248.474 44.3409 248.641 44.3636V47.6136C248.504 47.5758 248.262 47.5341 247.913 47.4886C247.565 47.4356 247.216 47.4091 246.868 47.4091C246.065 47.4091 245.349 47.5795 244.72 47.9205C244.099 48.2538 243.607 48.7197 243.243 49.3182C242.879 49.9091 242.697 50.5833 242.697 51.3409V62H239.3ZM260.322 62V38.7273H268.845C270.497 38.7273 271.864 39 272.947 39.5455C274.031 40.0833 274.841 40.8144 275.379 41.7386C275.917 42.6553 276.186 43.6894 276.186 44.8409C276.186 45.8106 276.008 46.6288 275.652 47.2955C275.296 47.9545 274.819 48.4848 274.22 48.8864C273.629 49.2803 272.978 49.5682 272.266 49.75V49.9773C273.038 50.0152 273.792 50.2652 274.527 50.7273C275.269 51.1818 275.883 51.8295 276.368 52.6705C276.853 53.5114 277.095 54.5341 277.095 55.7386C277.095 56.928 276.815 57.9962 276.254 58.9432C275.701 59.8826 274.845 60.6288 273.686 61.1818C272.527 61.7273 271.046 62 269.243 62H260.322ZM263.834 58.9886H268.902C270.584 58.9886 271.788 58.6629 272.516 58.0114C273.243 57.3598 273.607 56.5455 273.607 55.5682C273.607 54.8333 273.421 54.1591 273.05 53.5455C272.679 52.9318 272.148 52.4432 271.459 52.0795C270.777 51.7159 269.966 51.5341 269.027 51.5341H263.834V58.9886ZM263.834 48.7955H268.538C269.326 48.7955 270.035 48.6439 270.663 48.3409C271.3 48.0379 271.804 47.6136 272.175 47.0682C272.554 46.5152 272.743 45.8636 272.743 45.1136C272.743 44.1515 272.406 43.3447 271.732 42.6932C271.057 42.0417 270.023 41.7159 268.629 41.7159H263.834V48.7955ZM288.339 62.3523C286.703 62.3523 285.275 61.9773 284.055 61.2273C282.836 60.4773 281.889 59.428 281.214 58.0795C280.54 56.7311 280.203 55.1553 280.203 53.3523C280.203 51.5417 280.54 49.9583 281.214 48.6023C281.889 47.2462 282.836 46.1932 284.055 45.4432C285.275 44.6932 286.703 44.3182 288.339 44.3182C289.976 44.3182 291.404 44.6932 292.624 45.4432C293.843 46.1932 294.79 47.2462 295.464 48.6023C296.139 49.9583 296.476 51.5417 296.476 53.3523C296.476 55.1553 296.139 56.7311 295.464 58.0795C294.79 59.428 293.843 60.4773 292.624 61.2273C291.404 61.9773 289.976 62.3523 288.339 62.3523ZM288.351 59.5C289.411 59.5 290.29 59.2197 290.987 58.6591C291.684 58.0985 292.199 57.3523 292.533 56.4205C292.874 55.4886 293.044 54.4621 293.044 53.3409C293.044 52.2273 292.874 51.2045 292.533 50.2727C292.199 49.3333 291.684 48.5795 290.987 48.0114C290.29 47.4432 289.411 47.1591 288.351 47.1591C287.283 47.1591 286.396 47.4432 285.692 48.0114C284.995 48.5795 284.476 49.3333 284.135 50.2727C283.802 51.2045 283.635 52.2273 283.635 53.3409C283.635 54.4621 283.802 55.4886 284.135 56.4205C284.476 57.3523 284.995 58.0985 285.692 58.6591C286.396 59.2197 287.283 59.5 288.351 59.5ZM307.621 62.3523C305.984 62.3523 304.556 61.9773 303.337 61.2273C302.117 60.4773 301.17 59.428 300.496 58.0795C299.821 56.7311 299.484 55.1553 299.484 53.3523C299.484 51.5417 299.821 49.9583 300.496 48.6023C301.17 47.2462 302.117 46.1932 303.337 45.4432C304.556 44.6932 305.984 44.3182 307.621 44.3182C309.257 44.3182 310.685 44.6932 311.905 45.4432C313.125 46.1932 314.071 47.2462 314.746 48.6023C315.42 49.9583 315.757 51.5417 315.757 53.3523C315.757 55.1553 315.42 56.7311 314.746 58.0795C314.071 59.428 313.125 60.4773 311.905 61.2273C310.685 61.9773 309.257 62.3523 307.621 62.3523ZM307.632 59.5C308.693 59.5 309.571 59.2197 310.268 58.6591C310.965 58.0985 311.481 57.3523 311.814 56.4205C312.155 55.4886 312.325 54.4621 312.325 53.3409C312.325 52.2273 312.155 51.2045 311.814 50.2727C311.481 49.3333 310.965 48.5795 310.268 48.0114C309.571 47.4432 308.693 47.1591 307.632 47.1591C306.564 47.1591 305.678 47.4432 304.973 48.0114C304.276 48.5795 303.757 49.3333 303.416 50.2727C303.083 51.2045 302.916 52.2273 302.916 53.3409C302.916 54.4621 303.083 55.4886 303.416 56.4205C303.757 57.3523 304.276 58.0985 304.973 58.6591C305.678 59.2197 306.564 59.5 307.632 59.5ZM322.675 56.0795L322.652 51.9318H323.243L330.197 44.5455H334.266L326.334 52.9545H325.8L322.675 56.0795ZM319.55 62V38.7273H322.947V62H319.55ZM330.572 62L324.322 53.7045L326.663 51.3295L334.743 62H330.572ZM350.442 48.8068L347.362 49.3523C347.233 48.9583 347.029 48.5833 346.749 48.2273C346.476 47.8712 346.105 47.5795 345.635 47.3523C345.165 47.125 344.578 47.0114 343.874 47.0114C342.911 47.0114 342.108 47.2273 341.464 47.6591C340.821 48.0833 340.499 48.6326 340.499 49.3068C340.499 49.8902 340.714 50.3598 341.146 50.7159C341.578 51.072 342.275 51.3636 343.237 51.5909L346.01 52.2273C347.616 52.5985 348.813 53.1705 349.601 53.9432C350.389 54.7159 350.783 55.7197 350.783 56.9545C350.783 58 350.48 58.9318 349.874 59.75C349.275 60.5606 348.438 61.197 347.362 61.6591C346.294 62.1212 345.055 62.3523 343.646 62.3523C341.692 62.3523 340.097 61.9356 338.862 61.1023C337.627 60.2614 336.87 59.0682 336.589 57.5227L339.874 57.0227C340.078 57.8788 340.499 58.5265 341.135 58.9659C341.771 59.3977 342.601 59.6136 343.624 59.6136C344.737 59.6136 345.627 59.3826 346.294 58.9205C346.961 58.4508 347.294 57.8788 347.294 57.2045C347.294 56.6591 347.089 56.2008 346.68 55.8295C346.279 55.4583 345.661 55.178 344.828 54.9886L341.874 54.3409C340.245 53.9697 339.04 53.3788 338.26 52.5682C337.487 51.7576 337.101 50.7311 337.101 49.4886C337.101 48.4583 337.389 47.5568 337.964 46.7841C338.54 46.0114 339.336 45.4091 340.351 44.9773C341.366 44.5379 342.529 44.3182 343.839 44.3182C345.726 44.3182 347.211 44.7273 348.294 45.5455C349.377 46.3561 350.093 47.4432 350.442 48.8068ZM366.385 51.6364V62H362.987V38.7273H366.339V47.3864H366.555C366.964 46.447 367.589 45.7008 368.43 45.1477C369.271 44.5947 370.37 44.3182 371.726 44.3182C372.923 44.3182 373.968 44.5644 374.862 45.0568C375.764 45.5492 376.461 46.2841 376.953 47.2614C377.453 48.2311 377.703 49.4432 377.703 50.8977V62H374.305V51.3068C374.305 50.0265 373.976 49.0341 373.317 48.3295C372.658 47.6174 371.741 47.2614 370.567 47.2614C369.764 47.2614 369.044 47.4318 368.408 47.7727C367.779 48.1136 367.283 48.6136 366.919 49.2727C366.563 49.9242 366.385 50.7121 366.385 51.6364ZM389.76 62.3523C388.04 62.3523 386.559 61.9848 385.317 61.25C384.082 60.5076 383.127 59.4659 382.453 58.125C381.786 56.7765 381.453 55.197 381.453 53.3864C381.453 51.5985 381.786 50.0227 382.453 48.6591C383.127 47.2955 384.067 46.2311 385.271 45.4659C386.483 44.7008 387.9 44.3182 389.521 44.3182C390.506 44.3182 391.461 44.4811 392.385 44.8068C393.309 45.1326 394.139 45.6439 394.874 46.3409C395.608 47.0379 396.188 47.9432 396.612 49.0568C397.036 50.1629 397.249 51.5076 397.249 53.0909V54.2955H383.374V51.75H393.919C393.919 50.8561 393.737 50.0644 393.374 49.375C393.01 48.678 392.499 48.1288 391.839 47.7273C391.188 47.3258 390.423 47.125 389.544 47.125C388.589 47.125 387.756 47.3598 387.044 47.8295C386.339 48.2917 385.794 48.8977 385.408 49.6477C385.029 50.3902 384.839 51.197 384.839 52.0682V54.0568C384.839 55.2235 385.044 56.2159 385.453 57.0341C385.87 57.8523 386.449 58.4773 387.192 58.9091C387.934 59.3333 388.802 59.5455 389.794 59.5455C390.438 59.5455 391.025 59.4545 391.555 59.2727C392.086 59.0833 392.544 58.803 392.93 58.4318C393.317 58.0606 393.612 57.6023 393.817 57.0568L397.033 57.6364C396.775 58.5833 396.313 59.4129 395.646 60.125C394.987 60.8295 394.158 61.3788 393.158 61.7727C392.165 62.1591 391.033 62.3523 389.76 62.3523ZM401.018 62V44.5455H404.303V47.3182H404.484C404.803 46.3788 405.363 45.6402 406.166 45.1023C406.977 44.5568 407.893 44.2841 408.916 44.2841C409.128 44.2841 409.378 44.2917 409.666 44.3068C409.962 44.322 410.193 44.3409 410.359 44.3636V47.6136C410.223 47.5758 409.981 47.5341 409.632 47.4886C409.284 47.4356 408.935 47.4091 408.587 47.4091C407.784 47.4091 407.068 47.5795 406.439 47.9205C405.818 48.2538 405.325 48.7197 404.962 49.3182C404.598 49.9091 404.416 50.5833 404.416 51.3409V62H401.018ZM420.197 62.3523C418.478 62.3523 416.997 61.9848 415.754 61.25C414.519 60.5076 413.565 59.4659 412.891 58.125C412.224 56.7765 411.891 55.197 411.891 53.3864C411.891 51.5985 412.224 50.0227 412.891 48.6591C413.565 47.2955 414.504 46.2311 415.709 45.4659C416.921 44.7008 418.338 44.3182 419.959 44.3182C420.944 44.3182 421.898 44.4811 422.822 44.8068C423.747 45.1326 424.576 45.6439 425.311 46.3409C426.046 47.0379 426.625 47.9432 427.05 49.0568C427.474 50.1629 427.686 51.5076 427.686 53.0909V54.2955H413.811V51.75H424.357C424.357 50.8561 424.175 50.0644 423.811 49.375C423.447 48.678 422.936 48.1288 422.277 47.7273C421.625 47.3258 420.86 47.125 419.982 47.125C419.027 47.125 418.194 47.3598 417.482 47.8295C416.777 48.2917 416.232 48.8977 415.845 49.6477C415.466 50.3902 415.277 51.197 415.277 52.0682V54.0568C415.277 55.2235 415.482 56.2159 415.891 57.0341C416.307 57.8523 416.887 58.4773 417.629 58.9091C418.372 59.3333 419.239 59.5455 420.232 59.5455C420.875 59.5455 421.463 59.4545 421.993 59.2727C422.523 59.0833 422.982 58.803 423.368 58.4318C423.754 58.0606 424.05 57.6023 424.254 57.0568L427.47 57.6364C427.213 58.5833 426.75 59.4129 426.084 60.125C425.425 60.8295 424.595 61.3788 423.595 61.7727C422.603 62.1591 421.47 62.3523 420.197 62.3523Z" fill="#363636"/>
<path fill-rule="evenodd" clip-rule="evenodd" d="M257.582 314.707H267.799V327.7C267.799 330.259 265.498 332.354 262.689 332.354C259.878 332.354 257.585 330.257 257.585 327.7V314.707H257.582Z" fill="#63A343"/>
<path d="M235.557 306.961C235.82 307.08 236.086 307.193 236.356 307.306C240.845 309.225 245.454 310.635 250.098 311.559C252.272 311.991 254.45 312.317 256.625 312.544C257.678 312.652 258.73 312.732 259.789 312.795C261.891 312.915 263.999 312.943 266.091 312.875C267.132 312.842 268.179 312.784 269.222 312.711C273.896 312.357 278.511 311.533 282.974 310.285C283.969 310.006 284.953 309.706 285.925 309.386C286.901 309.058 287.867 308.72 288.823 308.359C290.261 307.812 291.671 307.221 293.067 306.585C295.268 305.574 297.409 304.45 299.473 303.216C300.019 302.885 300.568 302.559 301.104 302.215C301.959 301.67 302.802 301.107 303.627 300.521C304.041 300.23 304.451 299.934 304.861 299.634C305.673 299.031 306.474 298.409 307.257 297.773C308.04 297.128 308.808 296.467 309.558 295.789C311.055 294.435 312.496 293.001 313.854 291.498C314.539 290.752 315.196 289.982 315.84 289.198C316.482 288.413 317.105 287.606 317.719 286.784C318.314 285.968 318.899 285.13 319.468 284.276C320.594 282.566 321.633 280.788 322.583 278.937C323.532 277.095 324.369 275.23 325.098 273.346C325.459 272.408 325.797 271.458 326.106 270.514C326.41 269.562 326.688 268.607 326.941 267.664C327.196 266.707 327.42 265.754 327.618 264.79C328.018 262.883 328.306 260.964 328.492 259.044C328.541 258.568 328.582 258.087 328.61 257.604C328.711 256.168 328.757 254.732 328.734 253.304C328.732 252.825 328.716 252.346 328.698 251.87C328.662 250.913 328.6 249.968 328.515 249.02C328.255 246.174 327.765 243.363 327.064 240.6C326.714 239.218 326.307 237.848 325.853 236.496C325.544 235.593 325.217 234.695 324.861 233.808C324.508 232.921 324.135 232.039 323.74 231.168C322.967 229.479 322.107 227.823 321.166 226.207C319.919 224.062 318.528 221.986 316.995 219.987C316.397 219.213 315.778 218.446 315.137 217.69C314.843 217.348 314.549 217.008 314.243 216.667C313.882 216.264 313.519 215.86 313.148 215.469C312.988 215.302 312.831 215.14 312.673 214.974C312.137 214.42 311.596 213.866 311.037 213.329C311.027 213.317 311.019 213.312 311.009 213.308C310.414 212.733 309.798 212.168 309.179 211.612C309.05 211.499 308.927 211.386 308.798 211.274C307.34 209.997 305.804 208.78 304.193 207.616C303.696 207.257 303.186 206.901 302.671 206.546C302.294 206.3 301.923 206.047 301.539 205.805C298.718 203.977 295.693 202.331 292.487 200.895C292.132 200.74 291.781 200.583 291.418 200.428C291.153 200.315 290.885 200.2 290.614 200.09L292.745 195.949C293.013 196.064 293.284 196.174 293.549 196.287C293.935 196.454 294.317 196.627 294.696 196.794C298.154 198.34 301.408 200.111 304.451 202.082C304.861 202.347 305.263 202.614 305.667 202.889C306.226 203.264 306.77 203.644 307.309 204.036C309.045 205.289 310.7 206.6 312.269 207.978C312.416 208.097 312.547 208.222 312.684 208.344C313.351 208.939 314.016 209.542 314.655 210.164C314.665 210.171 314.673 210.176 314.683 210.188C315.286 210.767 315.874 211.358 316.448 211.961C316.616 212.137 316.786 212.308 316.951 212.489C317.355 212.914 317.75 213.355 318.136 213.784C318.461 214.15 318.778 214.518 319.097 214.887C319.788 215.701 320.453 216.522 321.099 217.362C322.746 219.518 324.251 221.754 325.591 224.062C326.606 225.808 327.531 227.593 328.363 229.411C328.791 230.35 329.195 231.297 329.577 232.255C329.955 233.217 330.309 234.174 330.641 235.147C331.131 236.609 331.566 238.082 331.945 239.572C332.705 242.552 333.23 245.58 333.509 248.642C333.602 249.665 333.663 250.683 333.705 251.713C333.725 252.227 333.741 252.741 333.746 253.254C333.766 254.796 333.717 256.344 333.612 257.893C333.578 258.409 333.537 258.925 333.486 259.446C333.285 261.506 332.973 263.579 332.54 265.642C332.329 266.672 332.086 267.699 331.813 268.724C331.545 269.752 331.241 270.772 330.914 271.8C330.579 272.818 330.216 273.839 329.829 274.85C329.043 276.882 328.142 278.895 327.119 280.882C326.093 282.866 324.972 284.786 323.758 286.627C323.15 287.549 322.522 288.45 321.872 289.332C321.218 290.219 320.543 291.085 319.855 291.932C319.162 292.776 318.445 293.604 317.711 294.411C316.25 296.035 314.696 297.574 313.086 299.036C312.274 299.768 311.444 300.476 310.604 301.17C309.757 301.853 308.898 302.524 308.025 303.179C307.584 303.498 307.144 303.819 306.69 304.131C305.801 304.765 304.897 305.368 303.974 305.959C303.395 306.322 302.805 306.679 302.217 307.033C299.988 308.366 297.685 309.576 295.311 310.663C293.812 311.345 292.289 311.986 290.74 312.575C289.712 312.969 288.664 313.328 287.617 313.677C286.569 314.022 285.51 314.351 284.443 314.646C279.632 315.988 274.664 316.877 269.622 317.258C268.498 317.344 267.375 317.405 266.249 317.441C263.994 317.509 261.727 317.485 259.456 317.354C258.32 317.286 257.186 317.194 256.053 317.082C253.71 316.84 251.36 316.483 249.018 316.021C244.019 315.022 239.051 313.506 234.21 311.442C233.944 311.329 233.679 311.209 233.416 311.099L235.557 306.961Z" fill="#63A343"/>
<path fill-rule="evenodd" clip-rule="evenodd" d="M298.112 187.438C300.66 188.529 301.765 191.309 300.572 193.631L236.481 318.022C235.286 320.338 232.227 321.344 229.682 320.258C227.138 319.172 226.03 316.389 227.226 314.069L291.319 189.676C292.51 187.358 295.568 186.351 298.112 187.438Z" fill="#63A343"/>
<path d="M312.48 221.395C313.078 222.116 313.647 222.852 314.201 223.61C314.76 224.361 315.296 225.135 315.817 225.921C316.848 227.49 317.804 229.13 318.68 230.829C319.551 232.523 320.324 234.238 320.988 235.967C321.323 236.828 321.633 237.698 321.908 238.569C322.194 239.439 322.452 240.309 322.684 241.194C322.916 242.069 323.125 242.944 323.305 243.828C323.673 245.583 323.936 247.348 324.106 249.112C324.191 249.994 324.253 250.876 324.289 251.756C324.328 252.64 324.341 253.515 324.333 254.395C324.325 254.831 324.315 255.268 324.299 255.709C324.266 256.586 324.207 257.457 324.129 258.327C323.89 260.938 323.441 263.526 322.795 266.069C322.475 267.338 322.102 268.596 321.679 269.842C321.401 270.672 321.094 271.493 320.772 272.312C320.445 273.124 320.097 273.933 319.736 274.736C318.087 278.341 316.01 281.788 313.534 285.014C312.988 285.729 312.413 286.433 311.828 287.127C310.653 288.509 309.391 289.851 308.064 291.137C307.396 291.777 306.711 292.406 306.007 293.019C301.439 297.014 296.087 300.406 290.037 302.992C285.906 304.756 281.673 306.053 277.401 306.895C275.404 307.299 273.402 307.599 271.402 307.806C270.433 307.902 269.464 307.982 268.493 308.036C266.56 308.151 264.625 308.176 262.7 308.111C261.742 308.078 260.783 308.026 259.825 307.956C255.524 307.627 251.283 306.877 247.181 305.732C246.271 305.474 245.364 305.197 244.47 304.901C243.573 304.606 242.684 304.294 241.806 303.963C240.484 303.456 239.183 302.914 237.907 302.328C235.879 301.403 233.916 300.366 232.014 299.233C231.514 298.931 231.009 298.63 230.515 298.311C229.729 297.811 228.95 297.295 228.198 296.758C227.817 296.491 227.441 296.221 227.062 295.942C226.322 295.388 225.585 294.813 224.861 294.227C224.145 293.635 223.441 293.033 222.748 292.411C221.37 291.165 220.045 289.847 218.801 288.465C218.172 287.775 217.564 287.071 216.974 286.346C216.381 285.626 215.809 284.889 215.25 284.132C214.694 283.381 214.16 282.611 213.64 281.821C212.606 280.251 211.65 278.618 210.777 276.917C209.903 275.224 209.133 273.504 208.463 271.78C208.136 270.914 207.824 270.043 207.541 269.171C207.265 268.3 207.005 267.425 206.773 266.555C206.538 265.68 206.332 264.795 206.154 263.916C205.786 262.156 205.52 260.394 205.348 258.63C205.306 258.186 205.27 257.748 205.242 257.307C205.149 255.983 205.105 254.667 205.126 253.351C205.131 252.908 205.147 252.469 205.16 252.033C205.196 251.158 205.252 250.285 205.327 249.414C205.567 246.801 206.018 244.216 206.662 241.672C206.981 240.403 207.355 239.146 207.775 237.898C208.058 237.072 208.36 236.248 208.685 235.432C209.009 234.613 209.352 233.808 209.72 233.006C210.429 231.453 211.218 229.933 212.086 228.443C213.227 226.475 214.508 224.562 215.917 222.726C216.469 222.01 217.038 221.308 217.623 220.614C217.899 220.297 218.167 219.985 218.443 219.68C218.778 219.31 219.11 218.939 219.455 218.573C219.597 218.423 219.739 218.27 219.886 218.12C220.378 217.609 220.875 217.104 221.39 216.607C221.401 216.6 221.406 216.595 221.408 216.591C221.962 216.056 222.527 215.542 223.096 215.035C223.212 214.93 223.325 214.826 223.449 214.723C224.789 213.545 226.201 212.426 227.68 211.363C228.141 211.028 228.608 210.702 229.084 210.378C229.427 210.141 229.772 209.918 230.123 209.691C232.713 208.013 235.49 206.498 238.441 205.179C238.765 205.034 239.09 204.891 239.425 204.748C239.979 204.506 240.541 204.281 241.102 204.06C246.632 201.881 252.339 200.525 258.055 199.938C259.021 199.842 259.992 199.76 260.959 199.706C261.255 199.689 261.559 199.675 261.86 199.661C262.525 199.631 263.195 199.612 263.86 199.603C264.826 199.586 265.787 199.6 266.754 199.631C267.712 199.664 268.676 199.711 269.629 199.786C273.474 200.079 277.272 200.712 280.962 201.662C281.4 201.775 281.835 201.892 282.273 202.012C283.183 202.268 284.085 202.547 284.984 202.84C285.878 203.136 286.772 203.45 287.648 203.783C288.97 204.285 290.271 204.827 291.549 205.412C294.105 206.585 296.577 207.929 298.937 209.428C299.725 209.93 300.501 210.451 301.258 210.983C301.64 211.251 302.016 211.525 302.387 211.8C303.51 212.633 304.598 213.505 305.665 214.413C306.015 214.714 306.366 215.026 306.708 215.333C308.089 216.579 309.409 217.897 310.661 219.279C311.282 219.964 311.89 220.673 312.48 221.395Z" fill="#24B4D5"/>
<path d="M276.359 326.012H249.584V338.76H276.359V326.012Z" fill="#63A343"/>
<path d="M308.459 338.762H217.877V347.761H308.459V338.762Z" fill="#63A343"/>
<path d="M337.453 410.459C340.411 410.454 342.812 412.176 342.825 414.304L342.993 450.361C343.006 452.496 340.612 454.232 337.654 454.241L138.537 454.999C135.574 455.011 133.175 453.289 133.165 451.161L133 415.102C132.99 412.969 135.381 411.229 138.339 411.217L337.453 410.459Z" fill="#61313E"/>
<path d="M337.453 410.459C340.411 410.454 342.812 412.176 342.825 414.304L342.993 450.361C343.006 452.496 340.612 454.232 337.654 454.241L138.537 454.999C135.574 455.011 133.175 453.289 133.165 451.161L133 415.102C132.99 412.969 135.381 411.229 138.339 411.217L337.453 410.459Z" fill="#63A343"/>
<path d="M337.707 377.135C340.441 377.123 342.664 378.425 342.677 380.053L342.798 407.498C342.806 409.121 340.598 410.444 337.866 410.456L153.997 411.155C151.263 411.167 149.044 409.853 149.034 408.232L148.91 380.792C148.905 379.164 151.108 377.839 153.845 377.834L337.707 377.135Z" fill="#22B1B6"/>
<path d="M353.511 343.752C355.91 343.74 357.861 345.047 357.866 346.671L357.992 374.12C358.003 375.738 356.06 377.066 353.663 377.078L192.252 377.686C189.859 377.697 187.908 376.391 187.9 374.762L187.771 347.323C187.766 345.695 189.707 344.376 192.1 344.364L353.511 343.752Z" fill="#EA5645"/>
<path d="M187.904 375.686C187.914 376.8 189.86 377.697 192.254 377.687L353.662 377.08C356.061 377.068 358.004 376.158 357.999 375.043L357.978 370.902L187.889 371.545L187.904 375.686Z" fill="#D13431"/>
<path d="M222.528 348.842C229.32 348.821 234.85 353.342 234.875 358.949C234.901 364.551 229.413 369.119 222.623 369.14C215.826 369.168 210.301 364.65 210.275 359.04C210.247 353.438 215.736 348.868 222.528 348.842Z" fill="#FFC23A"/>
<path d="M283.679 371.166L201.082 371.475L201.11 377.635L283.707 377.327L283.679 371.166Z" fill="#D13431"/>
<path d="M148.731 407.76C148.738 409.648 150.962 411.168 153.699 411.157L337.857 410.458C340.591 410.446 342.799 408.909 342.794 407.023L342.76 400.018L148.697 400.75L148.731 407.76Z" fill="#179998"/>
<path d="M233.33 377.527L192.268 377.684L192.421 411.012L233.484 410.855L233.33 377.527Z" fill="#FFC23A"/>
<path d="M283.563 377.384L277.807 377.406L277.966 410.732L283.722 410.71L283.563 377.384Z" fill="#FFC23A"/>
<path d="M233.416 400.447L192.355 400.619L192.408 411.043L233.468 410.871L233.416 400.447Z" fill="#F9A431"/>
<path d="M283.662 400.297L277.908 400.322L277.963 410.744L283.717 410.718L283.662 400.297Z" fill="#F9A431"/>
<path d="M133.511 451.16C133.522 453.292 135.928 455.014 138.884 455.003L338 454.245C340.958 454.235 343.354 452.499 343.344 450.371L343.305 442.451L133.473 443.253L133.511 451.16Z" fill="#4F823C"/>
<path d="M307.949 410.562L300.129 410.592L300.333 454.374L308.153 454.345L307.949 410.562Z" fill="#EA5645"/>
<path d="M320.228 410.519L312.402 410.549L312.606 454.329L320.432 454.299L320.228 410.519Z" fill="#EA5645"/>
<path d="M307.852 442.579L300.271 442.607L300.324 454.38L307.905 454.352L307.852 442.579Z" fill="#D13431"/>
<path d="M320.376 442.53L312.553 442.559L312.606 454.331L320.429 454.302L320.376 442.53Z" fill="#D13431"/>
<path d="M324.256 251.756C324.215 250.876 324.158 249.994 324.073 249.112C323.903 247.347 323.635 245.583 323.269 243.828C323.086 242.944 322.88 242.069 322.645 241.194C322.416 240.309 322.161 239.439 321.872 238.568C321.597 237.698 321.282 236.828 320.953 235.967C320.288 234.238 319.512 232.52 318.644 230.829C317.77 229.13 316.814 227.49 315.781 225.921C315.263 225.135 314.725 224.361 314.165 223.61C313.614 222.852 313.039 222.113 312.444 221.395C311.857 220.673 311.246 219.966 310.625 219.277C309.373 217.895 308.053 216.579 306.67 215.331C306.327 215.023 305.979 214.711 305.626 214.411C304.565 213.501 303.475 212.63 302.351 211.797C301.978 211.525 301.604 211.251 301.223 210.981C300.797 210.683 300.359 210.404 299.929 210.115C300.112 210.453 300.326 210.76 300.506 211.103C301.377 212.797 302.15 214.512 302.812 216.241C303.147 217.102 303.457 217.972 303.735 218.843C304.021 219.713 304.279 220.583 304.511 221.466C304.743 222.343 304.949 223.218 305.132 224.1C305.5 225.857 305.763 227.622 305.935 229.386C306.021 230.266 306.082 231.148 306.118 232.03C306.157 232.912 306.17 233.787 306.162 234.669C306.155 235.106 306.142 235.54 306.129 235.983C306.095 236.86 306.036 237.731 305.959 238.601C305.719 241.212 305.271 243.8 304.624 246.343C304.304 247.61 303.926 248.87 303.508 250.116C303.227 250.946 302.923 251.765 302.601 252.586C302.271 253.398 301.926 254.207 301.565 255.01C299.916 258.616 297.839 262.062 295.363 265.288C294.817 266.003 294.242 266.707 293.657 267.399C292.482 268.781 291.22 270.125 289.893 271.409C289.225 272.049 288.54 272.678 287.837 273.293C283.268 277.286 277.916 280.678 271.866 283.266C267.738 285.028 263.502 286.325 259.23 287.167C257.233 287.571 255.231 287.873 253.231 288.078C252.262 288.174 251.293 288.253 250.322 288.31C248.39 288.422 246.454 288.451 244.53 288.385C243.571 288.35 242.613 288.298 241.654 288.228C237.353 287.899 233.115 287.148 229.01 286.004C228.1 285.746 227.191 285.471 226.299 285.175C225.4 284.88 224.514 284.565 223.635 284.235C222.313 283.728 221.014 283.186 219.736 282.602C217.709 281.675 215.745 280.638 213.843 279.505C213.344 279.205 212.839 278.902 212.344 278.585C211.996 278.36 211.656 278.123 211.311 277.893C212.037 279.233 212.774 280.563 213.606 281.818C214.124 282.609 214.66 283.378 215.214 284.129C215.773 284.887 216.345 285.626 216.941 286.344C217.528 287.071 218.139 287.773 218.768 288.462C220.012 289.844 221.337 291.16 222.715 292.408C223.408 293.032 224.112 293.633 224.828 294.224C225.55 294.811 226.286 295.386 227.028 295.939C227.405 296.218 227.781 296.486 228.165 296.756C228.92 297.293 229.698 297.809 230.481 298.309C230.976 298.628 231.479 298.928 231.981 299.231C233.88 300.364 235.846 301.403 237.874 302.325C239.147 302.912 240.451 303.454 241.77 303.96C242.651 304.294 243.54 304.603 244.437 304.899C245.328 305.194 246.233 305.469 247.148 305.729C251.252 306.874 255.491 307.627 259.792 307.953C260.748 308.024 261.706 308.078 262.667 308.108C264.592 308.172 266.525 308.148 268.46 308.033C269.431 307.982 270.4 307.899 271.369 307.803C273.368 307.597 275.368 307.297 277.367 306.893C281.637 306.051 285.876 304.753 290.001 302.989C296.056 300.404 301.403 297.011 305.974 293.016C306.675 292.404 307.36 291.775 308.028 291.134C309.355 289.849 310.617 288.507 311.792 287.125C312.382 286.431 312.952 285.724 313.498 285.011C315.977 281.785 318.056 278.339 319.703 274.733C320.066 273.931 320.409 273.119 320.736 272.31C321.058 271.491 321.362 270.67 321.646 269.839C322.063 268.593 322.439 267.336 322.761 266.067C323.408 263.524 323.854 260.938 324.094 258.325C324.174 257.454 324.233 256.584 324.264 255.706C324.279 255.265 324.292 254.831 324.297 254.393C324.305 253.515 324.292 252.64 324.256 251.756Z" fill="#16A2B9"/>
<path d="M276.359 326.012H249.584V331.044H276.359V326.012Z" fill="#4F823C"/>
<path d="M293.691 240.941C293.629 241.29 293.629 241.64 293.07 241.882C292.511 242.126 291.65 242.958 291.325 242.85C291.001 242.743 290.679 242.529 290.408 242.475C290.143 242.421 289.403 242.529 289.432 242.393C289.462 242.259 289.815 242.126 289.815 241.964C289.815 241.804 289.875 241.478 289.522 241.478C289.166 241.478 288.486 241.29 288.957 241.236C289.432 241.182 289.846 241.049 289.728 240.91C289.609 240.777 289.194 240.861 289.05 240.861C288.898 240.861 288.573 240.938 288.811 240.535C289.05 240.134 289.285 239.833 289.401 239.782C289.519 239.728 289.934 239.81 289.991 240.077C290.053 240.347 290.406 240.938 290.467 240.561C290.524 240.185 290.645 239.941 290.761 240.157C290.882 240.373 290.733 240.535 290.97 240.211C291.207 239.887 291.382 239.862 291.619 239.995C291.856 240.134 292.096 240.321 292.096 240.075C292.096 239.831 292.268 239.484 292.477 239.618C292.683 239.754 292.951 239.833 293.157 240.049C293.366 240.267 293.691 240.941 293.691 240.941Z" fill="#206787"/>
<path d="M268.322 272.165C268.856 272.383 269.211 272.808 270.392 272.594C271.577 272.383 272.997 273.833 273.705 273.941C274.411 274.051 276.542 274.804 276.839 275.503C277.137 276.203 277.251 276.85 278.258 277.174C279.266 277.495 281.685 277.927 282.281 278.141C282.871 278.356 285.058 279.058 283.876 280.672C282.69 282.288 282.397 282.499 282.044 284.062C281.683 285.624 281.745 286.218 279.676 287.023C277.606 287.832 278.081 288.585 277.372 289.608C276.661 290.631 275.95 291.87 275.241 292.139C274.532 292.407 274.352 293.648 273.703 294.026C273.053 294.401 272.342 293.972 271.927 294.83C271.131 296.489 270.508 297.036 270.211 297.524C269.917 298.007 269.384 298.061 269.68 298.652C269.972 299.246 270.095 299.513 269.503 300.161C268.913 300.806 268.678 302.692 269.266 303.121C269.858 303.555 271.038 304.36 269.918 304.47C268.791 304.576 265.777 303.823 265.663 301.777C265.54 299.731 266.076 294.725 266.784 292.569C267.495 290.417 269.031 285.033 266.844 283.848C264.653 282.661 263.772 279.973 263.355 279.649C262.94 279.323 262.999 278.305 262.999 277.981C262.999 277.655 263.115 276.637 263.589 276.364C264.061 276.099 264.651 275.288 264.532 274.535C264.416 273.781 265.3 273.136 265.599 272.866C265.893 272.597 266.426 272.008 267.135 272.008C267.851 272.005 268.322 272.165 268.322 272.165Z" fill="#206787"/>
<path d="M272.911 301.813C272.725 301.71 272.468 301.72 272.29 301.839C272.112 301.957 272.022 302.172 272.066 302.37C272.535 302.712 273.279 302.682 273.72 302.309C273.831 302.21 273.934 302.069 273.885 301.933C273.838 301.778 273.635 301.713 273.46 301.715C273.29 301.715 273.109 301.759 272.942 301.724L272.911 301.813Z" fill="#206787"/>
<path d="M266.672 268.43C267.427 268.449 268.172 268.637 268.829 268.965C268.872 268.986 268.921 269.022 268.911 269.064C268.898 269.099 268.852 269.115 268.813 269.125C267.945 269.315 267.04 269.369 266.157 269.28C266.113 269.167 266.252 269.057 266.386 269.04C266.517 269.024 266.651 269.059 266.78 269.033C266.912 269.008 267.03 268.874 266.955 268.775C266.85 268.775 266.742 268.778 266.644 268.738C266.548 268.698 266.468 268.606 266.481 268.51C266.497 268.414 266.636 268.346 266.718 268.405L266.672 268.43Z" fill="#206787"/>
<path d="M269.863 269.027C269.621 268.952 269.345 268.971 269.118 269.079C269.08 269.098 269.038 269.123 269.031 269.158C269.018 269.224 269.098 269.273 269.17 269.299C269.361 269.363 269.58 269.424 269.768 269.346C269.956 269.269 270.033 268.99 269.85 268.9L269.863 269.027Z" fill="#206787"/>
<path d="M264.897 268.568C264.802 268.557 264.699 268.533 264.629 268.472C264.539 268.39 264.534 268.259 264.464 268.158C264.31 267.947 263.967 267.989 263.694 267.947C263.413 267.902 263.168 267.747 262.918 267.621C262.668 267.499 262.367 267.403 262.099 267.494C261.913 267.557 261.661 267.684 261.56 267.529C261.488 267.417 261.612 267.276 261.748 267.236C261.885 267.198 262.034 267.212 262.166 267.17C262.387 267.1 262.539 266.87 262.769 266.865C263.024 266.863 263.186 267.128 263.434 267.196C263.581 267.234 263.735 267.194 263.887 267.189C264.292 267.173 264.658 267.388 264.993 267.6C265.356 267.825 265.719 268.05 266.085 268.278C266.119 268.299 266.149 268.317 266.167 268.348C266.214 268.418 266.168 268.515 266.095 268.559C266.023 268.606 265.928 268.613 265.84 268.615C265.526 268.627 265.206 268.613 264.897 268.568Z" fill="#206787"/>
<path d="M264.271 269.173C264.384 269.044 264.583 268.993 264.753 269.042C264.92 269.089 265.049 269.239 265.062 269.398C264.794 269.49 264.469 269.422 264.266 269.234L264.271 269.173Z" fill="#206787"/>
<path d="M264.905 273.522C264.867 273.041 263.741 272.752 263.473 272.973C262.762 273.56 261.581 272.541 261.878 271.845C262.174 271.143 262.29 270.282 261.347 270.282C260.399 270.282 259.515 270.39 259.749 269.745C259.986 269.1 261.172 267.861 260.458 267.861C259.749 267.861 259.45 267.912 258.742 268.506C258.033 269.097 256.083 269.635 255.727 268.074C255.371 266.512 255.431 264.684 256.083 264.574C256.735 264.468 257.325 263.983 258.33 264.196C259.34 264.412 259.157 263.931 259.572 263.823C259.986 263.715 261.525 263.392 261.94 264.147C262.354 264.9 262.592 266.247 262.945 266.247C263.3 266.247 263.949 265.278 263.063 264.039C262.177 262.803 265.431 261.616 265.606 261.076C265.781 260.539 265.485 259.945 266.137 259.192C266.786 258.439 268.028 258.169 268.088 257.85C268.144 257.524 268.974 256.234 269.389 256.234C269.801 256.234 270.1 257.259 270.453 257.041C270.809 256.825 273.233 255.532 272.94 255.265C272.643 254.995 271.994 255.157 271.399 255.051C270.809 254.941 270.69 254.296 270.809 253.918C270.927 253.543 271.342 252.952 271.757 252.952C272.169 252.952 272.818 252.841 273.115 252.628C273.411 252.412 274.947 251.818 274.653 251.173C274.357 250.528 274.414 250.312 273.707 249.881C272.999 249.449 271.52 247.673 271.105 246.598C270.69 245.522 270.278 244.982 270.1 245.845C269.922 246.704 269.093 247.403 268.621 246.383C268.144 245.36 267.851 244.607 267.201 244.283C266.549 243.959 266.549 243.743 265.781 243.64C265.014 243.53 264.302 242.993 264.362 243.905C264.424 244.822 264.599 246.005 264.302 246.385C264.011 246.76 265.431 247.835 265.014 248.485C264.599 249.128 263.473 249.505 263.594 249.991C263.71 250.476 264.655 252.145 263.416 251.769C262.177 251.391 262.826 249.991 262.53 249.667C262.231 249.346 260.636 249.454 260.162 248.97C259.69 248.485 258.27 247.675 257.559 247.14C256.853 246.601 256.498 245.578 257.502 244.123C258.507 242.671 260.574 241.327 260.757 240.569C260.935 239.818 263.063 239.654 262.945 239.063C262.826 238.469 262.944 236.909 262.705 236.747C262.468 236.585 261.463 235.347 261.048 236.48C260.636 237.608 260.399 239.065 259.927 238.418C259.45 237.773 259.394 236.208 258.685 235.94C257.977 235.668 257.325 234.432 257.325 233.679C257.325 232.923 258.098 232.442 258.332 231.738C258.569 231.039 258.981 230.612 257.92 230.338C256.856 230.07 256.559 230.662 256.441 231.631C256.322 232.602 256.5 233.301 256.204 234.056C255.908 234.809 256.912 236.639 256.559 237.233C256.204 237.824 256.085 238.31 254.725 238.148C253.367 237.988 251.831 236.801 251.061 237.338C250.29 237.878 247.865 239.171 247.51 238.256C247.157 237.339 245.974 236.264 244.851 236.156C243.727 236.046 242.663 236.316 242.31 235.994C241.954 235.668 241.898 234.866 241.184 235.241C240.478 235.619 238.94 237.019 238.288 237.019C237.636 237.019 235.922 236.048 233.794 235.619C231.668 235.187 230.011 233.622 228.293 234.594C226.579 235.563 225.927 236.264 224.806 236.799C223.683 237.336 224.806 238.307 225.219 238.847C225.631 239.382 225.456 239.654 224.629 239.978C224.353 240.086 223.869 239.525 223.425 239.978C223.07 240.341 223.464 241.181 224.095 241.324C225.041 241.538 227.819 241.756 226.52 242.347C225.216 242.936 224.392 243.8 224.508 244.658C224.629 245.522 224.922 246.113 225.693 246.061C226.461 246.007 226.461 246.655 226.992 246.814C227.525 246.976 228.945 246.976 228.117 247.729C227.288 248.482 223.634 250.437 223.83 250.664C224.185 251.068 229.831 247.781 230.068 247.298C230.305 246.814 231.488 245.845 232.137 245.683C232.789 245.522 233.32 245.088 234.861 245.522C236.397 245.951 238.231 247.997 239.179 248.59C240.122 249.184 241.957 251.389 242.668 253.06C243.377 254.728 243.145 256.288 243.436 257.853C243.732 259.41 244.856 261.672 245.745 262.265C246.634 262.859 249.347 267.326 249.765 267.326C250.182 267.326 249.942 266.463 248.878 265.064C247.817 263.661 247.105 262.104 248.76 264.095C250.419 266.085 251.774 267.272 251.952 267.866C252.13 268.457 254.792 270.557 256.15 270.664C257.51 270.772 260.406 271.418 260.528 271.849C260.643 272.279 262.653 273.841 263.127 273.895C263.604 273.947 263.62 273.372 263.916 273.346C264.261 273.316 264.449 273.857 264.537 273.982C264.552 274.005 264.905 273.522 264.905 273.522Z" fill="#206787"/>
<path d="M273.322 253.078C273.056 253.383 272.891 253.763 272.86 254.15C272.85 254.242 272.853 254.338 272.897 254.42C273.046 254.683 273.474 254.603 273.798 254.622C274.187 254.645 274.522 254.866 274.868 255.035C275.21 255.206 275.643 255.323 275.981 255.145C275.976 254.826 275.816 254.533 275.664 254.246C275.566 254.07 275.468 253.89 275.37 253.707C275.162 253.317 274.922 252.9 274.499 252.696C274.079 252.489 273.425 252.637 273.332 253.064L273.322 253.078Z" fill="#206787"/>
<path d="M270.038 227.319C271.811 227.157 272.254 225.944 273.586 229.256C274.919 232.567 275.98 233.294 275.98 234.828C275.98 236.363 274.828 238.624 275.359 240.076C275.895 241.529 278.642 246.294 279.616 245.808C280.595 245.327 281.123 242.014 282.1 241.207C283.079 240.398 283.963 238.54 285.738 238.136C287.511 237.733 289.817 237.167 289.992 234.666C290.17 232.161 291.059 226.91 290.438 223.196C289.995 220.55 293.365 217.946 294.162 216.815C294.96 215.687 294.52 213.991 293.188 214.474C291.855 214.957 291.059 216.172 290.701 215.687C290.348 215.201 290.348 213.505 289.639 213.667C288.931 213.829 285.295 214.959 286.001 214.155C286.712 213.345 290.701 213.183 289.018 211.891C287.336 210.598 287.867 208.177 284.671 208.742C281.479 209.305 279.796 211.407 277.573 212.376C275.357 213.345 273.228 213.991 272.076 215.042C270.922 216.09 269.68 217.303 269.86 218.434C270.036 219.562 271.28 220.21 269.415 221.179C267.549 222.148 265.779 222.957 267.199 223.682C268.619 224.409 268.531 224.975 268.353 225.458C268.173 225.941 268.353 226.91 269.062 227.154C269.775 227.398 270.038 227.319 270.038 227.319Z" fill="#206787"/>
<path d="M259.93 230.792C259.485 231.52 258.688 233.777 259.219 234.344C259.752 234.908 260.196 235.719 261.703 235.799C263.213 235.879 264.012 235.555 264.633 236.041C265.254 236.526 268.003 238.305 266.759 239.513C265.519 240.726 262.981 242.556 264.986 242.178C267.555 241.695 268.799 244.44 269.596 244.198C270.394 243.954 270.662 242.823 269.954 241.695C269.245 240.562 269.333 239.274 270.041 239.998C270.75 240.723 272.969 240.806 270.928 238.786C268.89 236.766 269.333 235.799 268.446 235.151C267.555 234.506 265.96 233.134 265.254 232.484C264.543 231.841 264.896 232.083 263.569 231.273C262.234 230.464 261.353 230.628 261.26 231.032C261.175 231.435 260.729 230.952 260.461 230.87C260.193 230.792 259.93 230.792 259.93 230.792Z" fill="#206787"/>
<path d="M268.707 217.303C269.153 216.74 270.923 214.959 271.456 213.993C271.99 213.024 272.165 211.811 270.215 211.407C268.264 211.004 265.633 210.619 264.538 211.083C263.208 211.646 258.506 213.828 258.506 214.394C258.506 214.957 258.506 215.848 258.952 216.493C259.395 217.141 259.75 218.108 261.348 217.786C262.943 217.465 264.188 218.192 262.322 218.513C260.459 218.839 258.243 218.11 257.978 217.143C257.71 216.174 256.468 215.851 256.292 217.061C256.117 218.274 255.847 219.729 256.38 220.615C256.913 221.505 256.826 222.553 258.155 222.877C259.485 223.201 260.462 223.766 260.016 224.411C259.573 225.057 258.954 226.267 258.065 226.108C257.176 225.946 255.939 224.895 255.939 225.462C255.939 226.028 256.293 226.19 257.179 226.997C258.068 227.806 257.004 228.932 257.8 229.258C258.599 229.58 263.301 230.307 263.391 229.742C263.476 229.176 264.275 227.56 262.593 227.642C260.905 227.722 259.31 228.372 259.22 227.642C259.135 226.912 259.575 226.025 260.815 226.349C262.057 226.675 263.92 226.675 264.012 226.105C264.097 225.54 263.744 224.247 264.45 223.764C265.162 223.278 266.581 221.502 266.231 220.777C265.868 220.05 268.707 217.303 268.707 217.303Z" fill="#206787"/>
<path d="M243.942 229.941C243.568 229.951 243.259 230.202 243.202 230.535C243.058 231.337 242.741 232.731 243.076 233.214C243.522 233.862 243.962 235.075 244.671 234.265C245.382 233.456 245.292 232.409 245.913 232.165C246.534 231.921 248.843 231.035 246.977 230.392C245.815 229.986 244.65 229.927 243.942 229.941Z" fill="#206787"/>
<path d="M246.268 232.323C245.912 232.886 245.824 233.698 246.18 233.776C246.536 233.858 246.268 234.341 246.358 234.667C246.445 234.991 247.157 234.906 247.863 234.906C248.574 234.906 249.548 235.232 248.396 235.472C247.244 235.716 246.445 235.798 247.157 236.363C247.863 236.929 248.131 238.219 249.282 237.815C250.437 237.412 251.681 236.847 252.212 236.847C252.743 236.847 254.426 237.412 253.807 236.199C253.186 234.991 252.565 234.829 252.387 233.942C252.212 233.051 252.563 230.144 251.589 230.953C250.612 231.76 250.437 232.889 249.723 232.408C249.017 231.92 248.043 231.193 247.419 231.519C246.801 231.84 246.268 232.323 246.268 232.323Z" fill="#206787"/>
<path d="M246.18 224.654C245.116 225.217 243.784 226.674 244.495 226.995C245.204 227.319 246.538 226.411 246.979 225.944C249.102 223.685 246.18 224.654 246.18 224.654Z" fill="#206787"/>
<path d="M247.158 226.589C246.627 227.64 245.648 228.689 246.803 228.771C247.954 228.851 248.132 229.174 248.222 229.498C248.307 229.824 249.284 229.418 250.173 229.174C251.062 228.93 251.948 229.015 252.126 228.206C252.304 227.398 251.948 226.995 251.325 226.35C250.709 225.705 250.091 226.188 249.552 226.833C249.021 227.478 248.132 226.995 247.957 226.676C247.779 226.35 247.158 226.589 247.158 226.589Z" fill="#206787"/>
<path d="M248.495 222.269C248.415 222.344 248.386 222.464 248.446 222.55C248.611 222.804 249.043 222.891 249.402 222.912C249.683 222.928 250.017 222.928 250.19 222.719C250.409 222.459 250.175 222.051 249.837 221.933C249.5 221.816 249.126 221.898 248.775 221.983L248.495 222.269Z" fill="#206787"/>
<path d="M265.128 239.113C265.205 239.174 265.334 239.205 265.432 239.162C265.718 239.043 265.834 238.703 265.875 238.421C265.901 238.196 265.913 237.928 265.694 237.785C265.419 237.598 264.96 237.764 264.818 238.029C264.677 238.29 264.751 238.592 264.826 238.872L265.128 239.113Z" fill="#206787"/>
<path d="M260.97 240.504C260.849 240.537 260.759 240.629 260.733 240.741C260.612 241.382 260.042 241.905 260.37 242.421C260.725 242.986 261.699 243.39 261.877 242.986C262.052 242.583 262.588 242.742 262.851 242.742C263.116 242.742 263.65 242.663 263.029 241.853C262.599 241.295 262.163 241.654 261.521 240.603C261.436 240.467 261.238 240.432 261.073 240.474L260.97 240.504Z" fill="#206787"/>
<path d="M254.093 230.904C253.936 230.972 253.861 231.143 253.925 231.287C254.059 231.603 254.193 231.784 253.719 232.002C253.129 232.272 253.364 232.272 253.956 233.079C254.546 233.888 254.843 234.531 255.317 233.994C255.791 233.457 256.499 232.542 255.966 232.11C255.433 231.681 256.203 230.28 255.376 230.226C254.827 230.191 254.402 230.768 254.093 230.904Z" fill="#206787"/>
<path d="M251.707 220.805C251.944 221.343 252.478 221.451 252.478 221.88C252.478 222.314 251.651 222.635 252.769 223.065C253.898 223.496 254.606 224.411 254.722 223.926C254.841 223.442 254.9 222.525 254.547 222.096C254.194 221.666 253.632 220.925 253.068 220.697C251.589 220.104 251.707 220.805 251.707 220.805Z" fill="#206787"/>
<path d="M248.514 223.659C248.221 223.767 248.337 224.787 248.927 224.787C249.517 224.787 250.674 223.685 250.05 223.495C249.164 223.23 248.514 223.659 248.514 223.659Z" fill="#206787"/>
<path d="M252.652 226.297C252.949 226.832 252.83 228.07 253.361 228.07C253.894 228.07 253.954 228.232 254.25 228.558C254.544 228.882 255.551 229.098 255.551 227.857C255.551 226.618 255.255 225.971 254.721 226.137C254.191 226.297 253.302 226.677 253.183 226.51C253.065 226.351 252.652 226.297 252.652 226.297Z" fill="#206787"/>
<path d="M255.139 222.037C255.316 222.415 255.257 223.708 255.966 223.708C256.674 223.708 257.03 222.739 256.203 222.256C255.376 221.772 255.139 222.037 255.139 222.037Z" fill="#206787"/>
<path d="M256.558 227.964C256.027 228.445 255.906 228.984 256.321 229.198C256.736 229.414 257.563 230.007 257.267 228.766C256.973 227.532 256.558 227.964 256.558 227.964Z" fill="#206787"/>
<path d="M304.971 294.09C261.955 291.087 237.105 279.416 223.835 270.156C209.423 260.098 205.149 250.601 205.107 250.505L205.705 250.289C205.746 250.381 209.977 259.758 224.271 269.719C237.471 278.92 262.197 290.515 305.022 293.504L304.971 294.09Z" fill="#3AC2DB"/>
<path d="M234.116 301.807C225.407 277.276 226.219 255.878 236.526 238.209C252.135 211.455 284.571 202.643 284.893 202.559L285.074 203.122C284.749 203.206 252.566 211.955 237.09 238.489C226.871 256.011 226.074 277.253 234.73 301.628L234.116 301.807Z" fill="#3AC2DB"/>
<path d="M242.069 305.7L241.848 305.151C268.084 296.436 285.809 282.854 294.529 264.787C308.013 236.853 294.985 207.548 294.851 207.255L295.443 207.029C295.58 207.323 308.714 236.85 295.119 265.019C286.33 283.239 268.478 296.928 242.069 305.7Z" fill="#3AC2DB"/>
<path d="M324.273 256.027C281.835 253.082 257.333 241.49 244.251 232.282C230.045 222.283 225.837 212.833 225.799 212.739L226.397 212.523C226.438 212.617 230.599 221.948 244.689 231.848C257.701 240.993 282.08 252.512 324.322 255.44L324.273 256.027Z" fill="#3AC2DB"/>
<path d="M206.654 411.156H151.51V454.835H206.654V411.156Z" fill="#EA5645"/>
<path d="M206.654 443.09H151.51V454.834H206.654V443.09Z" fill="#D13431"/>
<path d="M193.116 411.156H168.684V454.835H193.116V411.156Z" fill="#FFC23A"/>
<path d="M193.204 443.092H168.684V454.836H193.204V443.092Z" fill="#F9A431"/>
<path d="M44.267 79.875V78.3636H53.2727V79.875H49.642V90H47.892V79.875H44.267ZM57.6222 90.1761C56.7623 90.1761 56.0218 89.9924 55.4006 89.625C54.7831 89.2538 54.3059 88.733 53.9688 88.0625C53.6354 87.3883 53.4688 86.5985 53.4688 85.6932C53.4688 84.7992 53.6354 84.0114 53.9688 83.3295C54.3059 82.6477 54.7756 82.1155 55.3778 81.733C55.9839 81.3504 56.6922 81.1591 57.5028 81.1591C57.9953 81.1591 58.4725 81.2405 58.9347 81.4034C59.3968 81.5663 59.8116 81.822 60.179 82.1705C60.5464 82.5189 60.8362 82.9716 61.0483 83.5284C61.2604 84.0814 61.3665 84.7538 61.3665 85.5455V86.1477H54.429V84.875H59.7017C59.7017 84.428 59.6108 84.0322 59.429 83.6875C59.2472 83.339 58.9915 83.0644 58.6619 82.8636C58.3362 82.6629 57.9536 82.5625 57.5142 82.5625C57.0369 82.5625 56.6203 82.6799 56.2642 82.9148C55.9119 83.1458 55.6392 83.4489 55.446 83.8239C55.2566 84.1951 55.1619 84.5985 55.1619 85.0341V86.0284C55.1619 86.6117 55.2642 87.108 55.4688 87.517C55.6771 87.9261 55.9669 88.2386 56.3381 88.4545C56.7093 88.6667 57.143 88.7727 57.6392 88.7727C57.9612 88.7727 58.2547 88.7273 58.5199 88.6364C58.785 88.5417 59.0142 88.4015 59.2074 88.2159C59.4006 88.0303 59.5483 87.8011 59.6506 87.5284L61.2585 87.8182C61.1297 88.2917 60.8987 88.7064 60.5653 89.0625C60.2358 89.4148 59.821 89.6894 59.321 89.8864C58.8248 90.0795 58.2585 90.1761 57.6222 90.1761ZM64.3892 81.2727L66.3153 84.6705L68.2585 81.2727H70.1165L67.3949 85.6364L70.1392 90H68.2812L66.3153 86.7386L64.3551 90H62.4915L65.2074 85.6364L62.5256 81.2727H64.3892ZM75.9347 81.2727V82.6364H71.1676V81.2727H75.9347ZM72.446 79.1818H74.1449V87.4375C74.1449 87.767 74.1941 88.0152 74.2926 88.1818C74.3911 88.3447 74.518 88.4564 74.6733 88.517C74.8324 88.5739 75.0047 88.6023 75.1903 88.6023C75.3267 88.6023 75.446 88.5928 75.5483 88.5739C75.6506 88.5549 75.7301 88.5398 75.7869 88.5284L76.0938 89.9318C75.9953 89.9697 75.8551 90.0076 75.6733 90.0455C75.4915 90.0871 75.2642 90.1098 74.9915 90.1136C74.5445 90.1212 74.1278 90.0417 73.7415 89.875C73.3551 89.7083 73.0426 89.4508 72.804 89.1023C72.5653 88.7538 72.446 88.3163 72.446 87.7898V79.1818ZM78.1378 90V78.3636H79.8366V82.6875H79.9389C80.0374 82.5057 80.1795 82.2955 80.3651 82.0568C80.5507 81.8182 80.8082 81.6098 81.1378 81.4318C81.4673 81.25 81.9029 81.1591 82.4446 81.1591C83.1491 81.1591 83.7779 81.3371 84.331 81.6932C84.884 82.0492 85.3177 82.5625 85.6321 83.233C85.9503 83.9034 86.1094 84.7102 86.1094 85.6534C86.1094 86.5966 85.9522 87.4053 85.6378 88.0795C85.3234 88.75 84.8916 89.267 84.3423 89.6307C83.7931 89.9905 83.1662 90.1705 82.4616 90.1705C81.9313 90.1705 81.4976 90.0814 81.1605 89.9034C80.8272 89.7254 80.5658 89.517 80.3764 89.2784C80.187 89.0398 80.0412 88.8277 79.9389 88.642H79.7969V90H78.1378ZM79.8026 85.6364C79.8026 86.25 79.8916 86.7879 80.0696 87.25C80.2476 87.7121 80.5052 88.0739 80.8423 88.3352C81.1795 88.5928 81.5923 88.7216 82.081 88.7216C82.5885 88.7216 83.0128 88.5871 83.3537 88.3182C83.6946 88.0455 83.9522 87.6761 84.1264 87.2102C84.3045 86.7443 84.3935 86.2197 84.3935 85.6364C84.3935 85.0606 84.3063 84.5436 84.1321 84.0852C83.9616 83.6269 83.7041 83.2652 83.3594 83C83.0185 82.7348 82.5923 82.6023 82.081 82.6023C81.5885 82.6023 81.1719 82.7292 80.831 82.983C80.4938 83.2367 80.2382 83.5909 80.0639 84.0455C79.8897 84.5 79.8026 85.0303 79.8026 85.6364ZM91.6932 90.1761C90.875 90.1761 90.161 89.9886 89.5511 89.6136C88.9413 89.2386 88.4678 88.714 88.1307 88.0398C87.7936 87.3655 87.625 86.5777 87.625 85.6761C87.625 84.7708 87.7936 83.9792 88.1307 83.3011C88.4678 82.6231 88.9413 82.0966 89.5511 81.7216C90.161 81.3466 90.875 81.1591 91.6932 81.1591C92.5114 81.1591 93.2254 81.3466 93.8352 81.7216C94.4451 82.0966 94.9186 82.6231 95.2557 83.3011C95.5928 83.9792 95.7614 84.7708 95.7614 85.6761C95.7614 86.5777 95.5928 87.3655 95.2557 88.0398C94.9186 88.714 94.4451 89.2386 93.8352 89.6136C93.2254 89.9886 92.5114 90.1761 91.6932 90.1761ZM91.6989 88.75C92.2292 88.75 92.6686 88.6098 93.017 88.3295C93.3655 88.0492 93.6231 87.6761 93.7898 87.2102C93.9602 86.7443 94.0455 86.2311 94.0455 85.6705C94.0455 85.1136 93.9602 84.6023 93.7898 84.1364C93.6231 83.6667 93.3655 83.2898 93.017 83.0057C92.6686 82.7216 92.2292 82.5795 91.6989 82.5795C91.1648 82.5795 90.7216 82.7216 90.3693 83.0057C90.0208 83.2898 89.7614 83.6667 89.5909 84.1364C89.4242 84.6023 89.3409 85.1136 89.3409 85.6705C89.3409 86.2311 89.4242 86.7443 89.5909 87.2102C89.7614 87.6761 90.0208 88.0492 90.3693 88.3295C90.7216 88.6098 91.1648 88.75 91.6989 88.75ZM101.334 90.1761C100.516 90.1761 99.8016 89.9886 99.1918 89.6136C98.5819 89.2386 98.1084 88.714 97.7713 88.0398C97.4342 87.3655 97.2656 86.5777 97.2656 85.6761C97.2656 84.7708 97.4342 83.9792 97.7713 83.3011C98.1084 82.6231 98.5819 82.0966 99.1918 81.7216C99.8016 81.3466 100.516 81.1591 101.334 81.1591C102.152 81.1591 102.866 81.3466 103.476 81.7216C104.086 82.0966 104.559 82.6231 104.896 83.3011C105.233 83.9792 105.402 84.7708 105.402 85.6761C105.402 86.5777 105.233 87.3655 104.896 88.0398C104.559 88.714 104.086 89.2386 103.476 89.6136C102.866 89.9886 102.152 90.1761 101.334 90.1761ZM101.339 88.75C101.87 88.75 102.309 88.6098 102.658 88.3295C103.006 88.0492 103.264 87.6761 103.43 87.2102C103.601 86.7443 103.686 86.2311 103.686 85.6705C103.686 85.1136 103.601 84.6023 103.43 84.1364C103.264 83.6667 103.006 83.2898 102.658 83.0057C102.309 82.7216 101.87 82.5795 101.339 82.5795C100.805 82.5795 100.362 82.7216 100.01 83.0057C99.6615 83.2898 99.402 83.6667 99.2315 84.1364C99.0649 84.6023 98.9815 85.1136 98.9815 85.6705C98.9815 86.2311 99.0649 86.7443 99.2315 87.2102C99.402 87.6761 99.6615 88.0492 100.01 88.3295C100.362 88.6098 100.805 88.75 101.339 88.75ZM108.861 87.0398L108.849 84.9659H109.145L112.622 81.2727H114.656L110.69 85.4773H110.423L108.861 87.0398ZM107.298 90V78.3636H108.997V90H107.298ZM112.81 90L109.685 85.8523L110.855 84.6648L114.895 90H112.81ZM122.744 83.4034L121.205 83.6761C121.14 83.4792 121.038 83.2917 120.898 83.1136C120.761 82.9356 120.576 82.7898 120.341 82.6761C120.106 82.5625 119.813 82.5057 119.46 82.5057C118.979 82.5057 118.578 82.6136 118.256 82.8295C117.934 83.0417 117.773 83.3163 117.773 83.6534C117.773 83.9451 117.881 84.1799 118.097 84.358C118.313 84.536 118.661 84.6818 119.142 84.7955L120.528 85.1136C121.331 85.2992 121.93 85.5852 122.324 85.9716C122.718 86.358 122.915 86.8598 122.915 87.4773C122.915 88 122.763 88.4659 122.46 88.875C122.161 89.2803 121.742 89.5985 121.205 89.8295C120.67 90.0606 120.051 90.1761 119.347 90.1761C118.369 90.1761 117.572 89.9678 116.955 89.5511C116.337 89.1307 115.958 88.5341 115.818 87.7614L117.46 87.5114C117.563 87.9394 117.773 88.2633 118.091 88.483C118.409 88.6989 118.824 88.8068 119.335 88.8068C119.892 88.8068 120.337 88.6913 120.67 88.4602C121.004 88.2254 121.17 87.9394 121.17 87.6023C121.17 87.3295 121.068 87.1004 120.864 86.9148C120.663 86.7292 120.354 86.589 119.938 86.4943L118.46 86.1705C117.646 85.9848 117.044 85.6894 116.653 85.2841C116.267 84.8788 116.074 84.3655 116.074 83.7443C116.074 83.2292 116.218 82.7784 116.506 82.392C116.794 82.0057 117.191 81.7045 117.699 81.4886C118.206 81.2689 118.788 81.1591 119.443 81.1591C120.386 81.1591 121.129 81.3636 121.67 81.7727C122.212 82.178 122.57 82.7216 122.744 83.4034ZM126.993 88.4091L126.908 89.0284C126.851 89.483 126.754 89.9564 126.618 90.4489C126.485 90.9451 126.347 91.4053 126.203 91.8295C126.063 92.2538 125.947 92.5909 125.857 92.8409H124.652C124.701 92.6061 124.769 92.2879 124.857 91.8864C124.944 91.4886 125.029 91.0436 125.112 90.5511C125.196 90.0587 125.258 89.5568 125.3 89.0455L125.357 88.4091H126.993ZM135.138 84.8182V90H133.439V81.2727H135.07V82.6932H135.178C135.378 82.2311 135.693 81.8598 136.121 81.5795C136.553 81.2992 137.096 81.1591 137.751 81.1591C138.346 81.1591 138.867 81.2841 139.314 81.5341C139.761 81.7803 140.107 82.1477 140.354 82.6364C140.6 83.125 140.723 83.7292 140.723 84.4489V90H139.024V84.6534C139.024 84.0208 138.859 83.5265 138.53 83.1705C138.2 82.8106 137.748 82.6307 137.172 82.6307C136.778 82.6307 136.428 82.7159 136.121 82.8864C135.818 83.0568 135.577 83.3068 135.399 83.6364C135.225 83.9621 135.138 84.3561 135.138 84.8182ZM146.678 90.1761C145.859 90.1761 145.145 89.9886 144.536 89.6136C143.926 89.2386 143.452 88.714 143.115 88.0398C142.778 87.3655 142.609 86.5777 142.609 85.6761C142.609 84.7708 142.778 83.9792 143.115 83.3011C143.452 82.6231 143.926 82.0966 144.536 81.7216C145.145 81.3466 145.859 81.1591 146.678 81.1591C147.496 81.1591 148.21 81.3466 148.82 81.7216C149.429 82.0966 149.903 82.6231 150.24 83.3011C150.577 83.9792 150.746 84.7708 150.746 85.6761C150.746 86.5777 150.577 87.3655 150.24 88.0398C149.903 88.714 149.429 89.2386 148.82 89.6136C148.21 89.9886 147.496 90.1761 146.678 90.1761ZM146.683 88.75C147.214 88.75 147.653 88.6098 148.001 88.3295C148.35 88.0492 148.607 87.6761 148.774 87.2102C148.945 86.7443 149.03 86.2311 149.03 85.6705C149.03 85.1136 148.945 84.6023 148.774 84.1364C148.607 83.6667 148.35 83.2898 148.001 83.0057C147.653 82.7216 147.214 82.5795 146.683 82.5795C146.149 82.5795 145.706 82.7216 145.354 83.0057C145.005 83.2898 144.746 83.6667 144.575 84.1364C144.409 84.6023 144.325 85.1136 144.325 85.6705C144.325 86.2311 144.409 86.7443 144.575 87.2102C144.746 87.6761 145.005 88.0492 145.354 88.3295C145.706 88.6098 146.149 88.75 146.683 88.75ZM156.716 81.2727V82.6364H151.949V81.2727H156.716ZM153.227 79.1818H154.926V87.4375C154.926 87.767 154.975 88.0152 155.074 88.1818C155.172 88.3447 155.299 88.4564 155.455 88.517C155.614 88.5739 155.786 88.6023 155.972 88.6023C156.108 88.6023 156.227 88.5928 156.33 88.5739C156.432 88.5549 156.511 88.5398 156.568 88.5284L156.875 89.9318C156.777 89.9697 156.636 90.0076 156.455 90.0455C156.273 90.0871 156.045 90.1098 155.773 90.1136C155.326 90.1212 154.909 90.0417 154.523 89.875C154.136 89.7083 153.824 89.4508 153.585 89.1023C153.347 88.7538 153.227 88.3163 153.227 87.7898V79.1818ZM162.263 90.1761C161.403 90.1761 160.662 89.9924 160.041 89.625C159.424 89.2538 158.946 88.733 158.609 88.0625C158.276 87.3883 158.109 86.5985 158.109 85.6932C158.109 84.7992 158.276 84.0114 158.609 83.3295C158.946 82.6477 159.416 82.1155 160.018 81.733C160.625 81.3504 161.333 81.1591 162.143 81.1591C162.636 81.1591 163.113 81.2405 163.575 81.4034C164.037 81.5663 164.452 81.822 164.82 82.1705C165.187 82.5189 165.477 82.9716 165.689 83.5284C165.901 84.0814 166.007 84.7538 166.007 85.5455V86.1477H159.07V84.875H164.342C164.342 84.428 164.251 84.0322 164.07 83.6875C163.888 83.339 163.632 83.0644 163.303 82.8636C162.977 82.6629 162.594 82.5625 162.155 82.5625C161.678 82.5625 161.261 82.6799 160.905 82.9148C160.553 83.1458 160.28 83.4489 160.087 83.8239C159.897 84.1951 159.803 84.5985 159.803 85.0341V86.0284C159.803 86.6117 159.905 87.108 160.109 87.517C160.318 87.9261 160.607 88.2386 160.979 88.4545C161.35 88.6667 161.784 88.7727 162.28 88.7727C162.602 88.7727 162.895 88.7273 163.161 88.6364C163.426 88.5417 163.655 88.4015 163.848 88.2159C164.041 88.0303 164.189 87.8011 164.291 87.5284L165.899 87.8182C165.77 88.2917 165.539 88.7064 165.206 89.0625C164.876 89.4148 164.462 89.6894 163.962 89.8864C163.465 90.0795 162.899 90.1761 162.263 90.1761ZM168.028 90V78.3636H169.727V82.6875H169.83C169.928 82.5057 170.07 82.2955 170.256 82.0568C170.441 81.8182 170.699 81.6098 171.028 81.4318C171.358 81.25 171.794 81.1591 172.335 81.1591C173.04 81.1591 173.669 81.3371 174.222 81.6932C174.775 82.0492 175.208 82.5625 175.523 83.233C175.841 83.9034 176 84.7102 176 85.6534C176 86.5966 175.843 87.4053 175.528 88.0795C175.214 88.75 174.782 89.267 174.233 89.6307C173.684 89.9905 173.057 90.1705 172.352 90.1705C171.822 90.1705 171.388 90.0814 171.051 89.9034C170.718 89.7254 170.456 89.517 170.267 89.2784C170.078 89.0398 169.932 88.8277 169.83 88.642H169.688V90H168.028ZM169.693 85.6364C169.693 86.25 169.782 86.7879 169.96 87.25C170.138 87.7121 170.396 88.0739 170.733 88.3352C171.07 88.5928 171.483 88.7216 171.972 88.7216C172.479 88.7216 172.903 88.5871 173.244 88.3182C173.585 88.0455 173.843 87.6761 174.017 87.2102C174.195 86.7443 174.284 86.2197 174.284 85.6364C174.284 85.0606 174.197 84.5436 174.023 84.0852C173.852 83.6269 173.595 83.2652 173.25 83C172.909 82.7348 172.483 82.6023 171.972 82.6023C171.479 82.6023 171.062 82.7292 170.722 82.983C170.384 83.2367 170.129 83.5909 169.955 84.0455C169.78 84.5 169.693 85.0303 169.693 85.6364ZM181.584 90.1761C180.766 90.1761 180.052 89.9886 179.442 89.6136C178.832 89.2386 178.358 88.714 178.021 88.0398C177.684 87.3655 177.516 86.5777 177.516 85.6761C177.516 84.7708 177.684 83.9792 178.021 83.3011C178.358 82.6231 178.832 82.0966 179.442 81.7216C180.052 81.3466 180.766 81.1591 181.584 81.1591C182.402 81.1591 183.116 81.3466 183.726 81.7216C184.336 82.0966 184.809 82.6231 185.146 83.3011C185.483 83.9792 185.652 84.7708 185.652 85.6761C185.652 86.5777 185.483 87.3655 185.146 88.0398C184.809 88.714 184.336 89.2386 183.726 89.6136C183.116 89.9886 182.402 90.1761 181.584 90.1761ZM181.589 88.75C182.12 88.75 182.559 88.6098 182.908 88.3295C183.256 88.0492 183.514 87.6761 183.68 87.2102C183.851 86.7443 183.936 86.2311 183.936 85.6705C183.936 85.1136 183.851 84.6023 183.68 84.1364C183.514 83.6667 183.256 83.2898 182.908 83.0057C182.559 82.7216 182.12 82.5795 181.589 82.5795C181.055 82.5795 180.612 82.7216 180.26 83.0057C179.911 83.2898 179.652 83.6667 179.482 84.1364C179.315 84.6023 179.232 85.1136 179.232 85.6705C179.232 86.2311 179.315 86.7443 179.482 87.2102C179.652 87.6761 179.911 88.0492 180.26 88.3295C180.612 88.6098 181.055 88.75 181.589 88.75ZM191.224 90.1761C190.406 90.1761 189.692 89.9886 189.082 89.6136C188.473 89.2386 187.999 88.714 187.662 88.0398C187.325 87.3655 187.156 86.5777 187.156 85.6761C187.156 84.7708 187.325 83.9792 187.662 83.3011C187.999 82.6231 188.473 82.0966 189.082 81.7216C189.692 81.3466 190.406 81.1591 191.224 81.1591C192.043 81.1591 192.757 81.3466 193.366 81.7216C193.976 82.0966 194.45 82.6231 194.787 83.3011C195.124 83.9792 195.293 84.7708 195.293 85.6761C195.293 86.5777 195.124 87.3655 194.787 88.0398C194.45 88.714 193.976 89.2386 193.366 89.6136C192.757 89.9886 192.043 90.1761 191.224 90.1761ZM191.23 88.75C191.76 88.75 192.2 88.6098 192.548 88.3295C192.897 88.0492 193.154 87.6761 193.321 87.2102C193.491 86.7443 193.577 86.2311 193.577 85.6705C193.577 85.1136 193.491 84.6023 193.321 84.1364C193.154 83.6667 192.897 83.2898 192.548 83.0057C192.2 82.7216 191.76 82.5795 191.23 82.5795C190.696 82.5795 190.253 82.7216 189.901 83.0057C189.552 83.2898 189.293 83.6667 189.122 84.1364C188.955 84.6023 188.872 85.1136 188.872 85.6705C188.872 86.2311 188.955 86.7443 189.122 87.2102C189.293 87.6761 189.552 88.0492 189.901 88.3295C190.253 88.6098 190.696 88.75 191.23 88.75ZM198.751 87.0398L198.74 84.9659H199.036L202.513 81.2727H204.547L200.581 85.4773H200.314L198.751 87.0398ZM197.189 90V78.3636H198.888V90H197.189ZM202.7 90L199.575 85.8523L200.746 84.6648L204.786 90H202.7ZM212.635 83.4034L211.095 83.6761C211.031 83.4792 210.929 83.2917 210.788 83.1136C210.652 82.9356 210.466 82.7898 210.232 82.6761C209.997 82.5625 209.703 82.5057 209.351 82.5057C208.87 82.5057 208.468 82.6136 208.146 82.8295C207.824 83.0417 207.663 83.3163 207.663 83.6534C207.663 83.9451 207.771 84.1799 207.987 84.358C208.203 84.536 208.552 84.6818 209.033 84.7955L210.419 85.1136C211.222 85.2992 211.821 85.5852 212.214 85.9716C212.608 86.358 212.805 86.8598 212.805 87.4773C212.805 88 212.654 88.4659 212.351 88.875C212.052 89.2803 211.633 89.5985 211.095 89.8295C210.561 90.0606 209.942 90.1761 209.237 90.1761C208.26 90.1761 207.463 89.9678 206.845 89.5511C206.228 89.1307 205.849 88.5341 205.709 87.7614L207.351 87.5114C207.453 87.9394 207.663 88.2633 207.982 88.483C208.3 88.6989 208.714 88.8068 209.226 88.8068C209.783 88.8068 210.228 88.6913 210.561 88.4602C210.894 88.2254 211.061 87.9394 211.061 87.6023C211.061 87.3295 210.959 87.1004 210.754 86.9148C210.554 86.7292 210.245 86.589 209.828 86.4943L208.351 86.1705C207.536 85.9848 206.934 85.6894 206.544 85.2841C206.158 84.8788 205.964 84.3655 205.964 83.7443C205.964 83.2292 206.108 82.7784 206.396 82.392C206.684 82.0057 207.082 81.7045 207.589 81.4886C208.097 81.2689 208.679 81.1591 209.334 81.1591C210.277 81.1591 211.019 81.3636 211.561 81.7727C212.103 82.178 212.461 82.7216 212.635 83.4034ZM221.447 90.1932C220.894 90.1932 220.394 90.0909 219.947 89.8864C219.5 89.678 219.146 89.3769 218.885 88.983C218.627 88.589 218.499 88.1061 218.499 87.5341C218.499 87.0417 218.593 86.6364 218.783 86.3182C218.972 86 219.228 85.7481 219.55 85.5625C219.872 85.3769 220.232 85.2367 220.629 85.142C221.027 85.0473 221.432 84.9754 221.845 84.9261C222.368 84.8655 222.792 84.8163 223.118 84.7784C223.444 84.7367 223.68 84.6705 223.828 84.5795C223.976 84.4886 224.05 84.3409 224.05 84.1364V84.0966C224.05 83.6004 223.91 83.2159 223.629 82.9432C223.353 82.6705 222.94 82.5341 222.391 82.5341C221.819 82.5341 221.368 82.661 221.038 82.9148C220.713 83.1648 220.487 83.4432 220.362 83.75L218.766 83.3864C218.955 82.8561 219.232 82.428 219.595 82.1023C219.963 81.7727 220.385 81.5341 220.862 81.3864C221.339 81.2348 221.841 81.1591 222.368 81.1591C222.716 81.1591 223.086 81.2008 223.476 81.2841C223.87 81.3636 224.237 81.5114 224.578 81.7273C224.923 81.9432 225.205 82.2519 225.425 82.6534C225.644 83.0511 225.754 83.5682 225.754 84.2045V90H224.095V88.8068H224.027C223.917 89.0265 223.752 89.2424 223.533 89.4545C223.313 89.6667 223.031 89.8428 222.686 89.983C222.341 90.1231 221.929 90.1932 221.447 90.1932ZM221.817 88.8295C222.286 88.8295 222.688 88.7367 223.021 88.5511C223.358 88.3655 223.614 88.1231 223.788 87.8239C223.966 87.5208 224.055 87.197 224.055 86.8523V85.7273C223.995 85.7879 223.877 85.8447 223.703 85.8977C223.533 85.947 223.338 85.9905 223.118 86.0284C222.898 86.0625 222.684 86.0947 222.476 86.125C222.268 86.1515 222.093 86.1742 221.953 86.1932C221.624 86.2348 221.322 86.3049 221.05 86.4034C220.781 86.5019 220.565 86.6439 220.402 86.8295C220.243 87.0114 220.163 87.2538 220.163 87.5568C220.163 87.9773 220.319 88.2955 220.629 88.5114C220.94 88.7235 221.336 88.8295 221.817 88.8295ZM229.716 84.8182V90H228.017V81.2727H229.648V82.6932H229.756C229.956 82.2311 230.271 81.8598 230.699 81.5795C231.131 81.2992 231.674 81.1591 232.33 81.1591C232.924 81.1591 233.445 81.2841 233.892 81.5341C234.339 81.7803 234.686 82.1477 234.932 82.6364C235.178 83.125 235.301 83.7292 235.301 84.4489V90H233.602V84.6534C233.602 84.0208 233.438 83.5265 233.108 83.1705C232.778 82.8106 232.326 82.6307 231.75 82.6307C231.356 82.6307 231.006 82.7159 230.699 82.8864C230.396 83.0568 230.155 83.3068 229.977 83.6364C229.803 83.9621 229.716 84.3561 229.716 84.8182ZM240.847 90.1705C240.142 90.1705 239.513 89.9905 238.96 89.6307C238.411 89.267 237.979 88.75 237.665 88.0795C237.354 87.4053 237.199 86.5966 237.199 85.6534C237.199 84.7102 237.356 83.9034 237.67 83.233C237.989 82.5625 238.424 82.0492 238.977 81.6932C239.53 81.3371 240.157 81.1591 240.858 81.1591C241.4 81.1591 241.835 81.25 242.165 81.4318C242.498 81.6098 242.756 81.8182 242.938 82.0568C243.123 82.2955 243.267 82.5057 243.369 82.6875H243.472V78.3636H245.17V90H243.511V88.642H243.369C243.267 88.8277 243.119 89.0398 242.926 89.2784C242.737 89.517 242.475 89.7254 242.142 89.9034C241.809 90.0814 241.377 90.1705 240.847 90.1705ZM241.222 88.7216C241.71 88.7216 242.123 88.5928 242.46 88.3352C242.801 88.0739 243.059 87.7121 243.233 87.25C243.411 86.7879 243.5 86.25 243.5 85.6364C243.5 85.0303 243.413 84.5 243.239 84.0455C243.064 83.5909 242.809 83.2367 242.472 82.983C242.134 82.7292 241.718 82.6023 241.222 82.6023C240.71 82.6023 240.284 82.7348 239.943 83C239.602 83.2652 239.345 83.6269 239.17 84.0852C239 84.5436 238.915 85.0606 238.915 85.6364C238.915 86.2197 239.002 86.7443 239.176 87.2102C239.35 87.6761 239.608 88.0455 239.949 88.3182C240.294 88.5871 240.718 88.7216 241.222 88.7216ZM254.369 90.1932C253.816 90.1932 253.316 90.0909 252.869 89.8864C252.422 89.678 252.068 89.3769 251.807 88.983C251.549 88.589 251.42 88.1061 251.42 87.5341C251.42 87.0417 251.515 86.6364 251.705 86.3182C251.894 86 252.15 85.7481 252.472 85.5625C252.794 85.3769 253.153 85.2367 253.551 85.142C253.949 85.0473 254.354 84.9754 254.767 84.9261C255.29 84.8655 255.714 84.8163 256.04 84.7784C256.366 84.7367 256.602 84.6705 256.75 84.5795C256.898 84.4886 256.972 84.3409 256.972 84.1364V84.0966C256.972 83.6004 256.831 83.2159 256.551 82.9432C256.275 82.6705 255.862 82.5341 255.312 82.5341C254.741 82.5341 254.29 82.661 253.96 82.9148C253.634 83.1648 253.409 83.4432 253.284 83.75L251.688 83.3864C251.877 82.8561 252.153 82.428 252.517 82.1023C252.884 81.7727 253.307 81.5341 253.784 81.3864C254.261 81.2348 254.763 81.1591 255.29 81.1591C255.638 81.1591 256.008 81.2008 256.398 81.2841C256.792 81.3636 257.159 81.5114 257.5 81.7273C257.845 81.9432 258.127 82.2519 258.347 82.6534C258.566 83.0511 258.676 83.5682 258.676 84.2045V90H257.017V88.8068H256.949C256.839 89.0265 256.674 89.2424 256.455 89.4545C256.235 89.6667 255.953 89.8428 255.608 89.983C255.263 90.1231 254.85 90.1932 254.369 90.1932ZM254.739 88.8295C255.208 88.8295 255.61 88.7367 255.943 88.5511C256.28 88.3655 256.536 88.1231 256.71 87.8239C256.888 87.5208 256.977 87.197 256.977 86.8523V85.7273C256.917 85.7879 256.799 85.8447 256.625 85.8977C256.455 85.947 256.259 85.9905 256.04 86.0284C255.82 86.0625 255.606 86.0947 255.398 86.125C255.189 86.1515 255.015 86.1742 254.875 86.1932C254.545 86.2348 254.244 86.3049 253.972 86.4034C253.703 86.5019 253.487 86.6439 253.324 86.8295C253.165 87.0114 253.085 87.2538 253.085 87.5568C253.085 87.9773 253.241 88.2955 253.551 88.5114C253.862 88.7235 254.258 88.8295 254.739 88.8295ZM262.638 78.3636V90H260.939V78.3636H262.638ZM266.622 78.3636V90H264.923V78.3636H266.622ZM274.705 87.0398L274.693 84.9659H274.989L278.466 81.2727H280.5L276.534 85.4773H276.267L274.705 87.0398ZM273.142 90V78.3636H274.841V90H273.142ZM278.653 90L275.528 85.8523L276.699 84.6648L280.739 90H278.653ZM282.048 90V81.2727H283.747V90H282.048ZM282.906 79.9261C282.611 79.9261 282.357 79.8277 282.145 79.6307C281.937 79.4299 281.832 79.1913 281.832 78.9148C281.832 78.6345 281.937 78.3958 282.145 78.1989C282.357 77.9981 282.611 77.8977 282.906 77.8977C283.202 77.8977 283.454 77.9981 283.662 78.1989C283.874 78.3958 283.98 78.6345 283.98 78.9148C283.98 79.1913 283.874 79.4299 283.662 79.6307C283.454 79.8277 283.202 79.9261 282.906 79.9261ZM287.732 84.8182V90H286.033V81.2727H287.663V82.6932H287.771C287.972 82.2311 288.286 81.8598 288.714 81.5795C289.146 81.2992 289.69 81.1591 290.345 81.1591C290.94 81.1591 291.461 81.2841 291.908 81.5341C292.355 81.7803 292.701 82.1477 292.947 82.6364C293.194 83.125 293.317 83.7292 293.317 84.4489V90H291.618V84.6534C291.618 84.0208 291.453 83.5265 291.124 83.1705C290.794 82.8106 290.341 82.6307 289.766 82.6307C289.372 82.6307 289.021 82.7159 288.714 82.8864C288.411 83.0568 288.171 83.3068 287.993 83.6364C287.819 83.9621 287.732 84.3561 287.732 84.8182ZM298.862 90.1705C298.158 90.1705 297.529 89.9905 296.976 89.6307C296.427 89.267 295.995 88.75 295.68 88.0795C295.37 87.4053 295.214 86.5966 295.214 85.6534C295.214 84.7102 295.372 83.9034 295.686 83.233C296.004 82.5625 296.44 82.0492 296.993 81.6932C297.546 81.3371 298.173 81.1591 298.874 81.1591C299.415 81.1591 299.851 81.25 300.18 81.4318C300.514 81.6098 300.771 81.8182 300.953 82.0568C301.139 82.2955 301.283 82.5057 301.385 82.6875H301.487V78.3636H303.186V90H301.527V88.642H301.385C301.283 88.8277 301.135 89.0398 300.942 89.2784C300.752 89.517 300.491 89.7254 300.158 89.9034C299.824 90.0814 299.393 90.1705 298.862 90.1705ZM299.237 88.7216C299.726 88.7216 300.139 88.5928 300.476 88.3352C300.817 88.0739 301.074 87.7121 301.249 87.25C301.427 86.7879 301.516 86.25 301.516 85.6364C301.516 85.0303 301.429 84.5 301.254 84.0455C301.08 83.5909 300.824 83.2367 300.487 82.983C300.15 82.7292 299.733 82.6023 299.237 82.6023C298.726 82.6023 298.3 82.7348 297.959 83C297.618 83.2652 297.36 83.6269 297.186 84.0852C297.016 84.5436 296.93 85.0606 296.93 85.6364C296.93 86.2197 297.018 86.7443 297.192 87.2102C297.366 87.6761 297.624 88.0455 297.964 88.3182C298.309 88.5871 298.733 88.7216 299.237 88.7216ZM312.151 83.4034L310.611 83.6761C310.546 83.4792 310.444 83.2917 310.304 83.1136C310.168 82.9356 309.982 82.7898 309.747 82.6761C309.512 82.5625 309.219 82.5057 308.866 82.5057C308.385 82.5057 307.984 82.6136 307.662 82.8295C307.34 83.0417 307.179 83.3163 307.179 83.6534C307.179 83.9451 307.287 84.1799 307.503 84.358C307.719 84.536 308.067 84.6818 308.548 84.7955L309.935 85.1136C310.738 85.2992 311.336 85.5852 311.73 85.9716C312.124 86.358 312.321 86.8598 312.321 87.4773C312.321 88 312.17 88.4659 311.866 88.875C311.567 89.2803 311.149 89.5985 310.611 89.8295C310.077 90.0606 309.457 90.1761 308.753 90.1761C307.776 90.1761 306.978 89.9678 306.361 89.5511C305.743 89.1307 305.365 88.5341 305.224 87.7614L306.866 87.5114C306.969 87.9394 307.179 88.2633 307.497 88.483C307.815 88.6989 308.23 88.8068 308.741 88.8068C309.298 88.8068 309.743 88.6913 310.077 88.4602C310.41 88.2254 310.577 87.9394 310.577 87.6023C310.577 87.3295 310.474 87.1004 310.27 86.9148C310.069 86.7292 309.76 86.589 309.344 86.4943L307.866 86.1705C307.052 85.9848 306.45 85.6894 306.06 85.2841C305.673 84.8788 305.48 84.3655 305.48 83.7443C305.48 83.2292 305.624 82.7784 305.912 82.392C306.2 82.0057 306.598 81.7045 307.105 81.4886C307.613 81.2689 308.194 81.1591 308.849 81.1591C309.793 81.1591 310.535 81.3636 311.077 81.7727C311.618 82.178 311.976 82.7216 312.151 83.4034ZM322.099 90.1761C321.281 90.1761 320.567 89.9886 319.957 89.6136C319.348 89.2386 318.874 88.714 318.537 88.0398C318.2 87.3655 318.031 86.5777 318.031 85.6761C318.031 84.7708 318.2 83.9792 318.537 83.3011C318.874 82.6231 319.348 82.0966 319.957 81.7216C320.567 81.3466 321.281 81.1591 322.099 81.1591C322.918 81.1591 323.632 81.3466 324.241 81.7216C324.851 82.0966 325.325 82.6231 325.662 83.3011C325.999 83.9792 326.168 84.7708 326.168 85.6761C326.168 86.5777 325.999 87.3655 325.662 88.0398C325.325 88.714 324.851 89.2386 324.241 89.6136C323.632 89.9886 322.918 90.1761 322.099 90.1761ZM322.105 88.75C322.635 88.75 323.075 88.6098 323.423 88.3295C323.772 88.0492 324.029 87.6761 324.196 87.2102C324.366 86.7443 324.452 86.2311 324.452 85.6705C324.452 85.1136 324.366 84.6023 324.196 84.1364C324.029 83.6667 323.772 83.2898 323.423 83.0057C323.075 82.7216 322.635 82.5795 322.105 82.5795C321.571 82.5795 321.128 82.7216 320.776 83.0057C320.427 83.2898 320.168 83.6667 319.997 84.1364C319.83 84.6023 319.747 85.1136 319.747 85.6705C319.747 86.2311 319.83 86.7443 319.997 87.2102C320.168 87.6761 320.427 88.0492 320.776 88.3295C321.128 88.6098 321.571 88.75 322.105 88.75ZM332.217 81.2727V82.6364H327.286V81.2727H332.217ZM328.638 90V80.2614C328.638 79.7159 328.757 79.2633 328.996 78.9034C329.234 78.5398 329.551 78.2689 329.945 78.0909C330.339 77.9091 330.767 77.8182 331.229 77.8182C331.57 77.8182 331.861 77.8466 332.104 77.9034C332.346 77.9564 332.526 78.0057 332.643 78.0511L332.246 79.4261C332.166 79.4034 332.064 79.3769 331.939 79.3466C331.814 79.3125 331.662 79.2955 331.484 79.2955C331.071 79.2955 330.776 79.3977 330.598 79.6023C330.424 79.8068 330.337 80.1023 330.337 80.4886V90H328.638ZM344.688 81.4205C344.627 80.8826 344.377 80.4659 343.938 80.1705C343.498 79.8712 342.945 79.7216 342.278 79.7216C341.801 79.7216 341.388 79.7973 341.04 79.9489C340.691 80.0966 340.42 80.3011 340.227 80.5625C340.038 80.8201 339.943 81.1136 339.943 81.4432C339.943 81.7197 340.008 81.9583 340.136 82.1591C340.269 82.3598 340.441 82.5284 340.653 82.6648C340.869 82.7973 341.1 82.9091 341.347 83C341.593 83.0871 341.83 83.1591 342.057 83.2159L343.193 83.5114C343.564 83.6023 343.945 83.7254 344.335 83.8807C344.725 84.036 345.087 84.2405 345.42 84.4943C345.754 84.7481 346.023 85.0625 346.227 85.4375C346.436 85.8125 346.54 86.2614 346.54 86.7841C346.54 87.4432 346.369 88.0284 346.028 88.5398C345.691 89.0511 345.201 89.4545 344.557 89.75C343.917 90.0455 343.142 90.1932 342.233 90.1932C341.362 90.1932 340.608 90.0549 339.972 89.7784C339.335 89.5019 338.837 89.1098 338.477 88.6023C338.117 88.0909 337.919 87.4848 337.881 86.7841H339.642C339.676 87.2045 339.813 87.5549 340.051 87.8352C340.294 88.1117 340.602 88.3182 340.977 88.4545C341.356 88.5871 341.771 88.6534 342.222 88.6534C342.718 88.6534 343.159 88.5758 343.545 88.4205C343.936 88.2614 344.242 88.0417 344.466 87.7614C344.689 87.4773 344.801 87.1458 344.801 86.767C344.801 86.4223 344.703 86.1402 344.506 85.9205C344.313 85.7008 344.049 85.5189 343.716 85.375C343.386 85.2311 343.013 85.1042 342.597 84.9943L341.222 84.6193C340.29 84.3655 339.551 83.9924 339.006 83.5C338.464 83.0076 338.193 82.3561 338.193 81.5455C338.193 80.875 338.375 80.2898 338.739 79.7898C339.102 79.2898 339.595 78.9015 340.216 78.625C340.837 78.3447 341.538 78.2045 342.318 78.2045C343.106 78.2045 343.801 78.3428 344.403 78.6193C345.009 78.8958 345.487 79.2765 345.835 79.7614C346.184 80.2424 346.366 80.7955 346.381 81.4205H344.688ZM352.575 81.2727V82.6364H347.808V81.2727H352.575ZM349.087 79.1818H350.786V87.4375C350.786 87.767 350.835 88.0152 350.933 88.1818C351.032 88.3447 351.159 88.4564 351.314 88.517C351.473 88.5739 351.645 88.6023 351.831 88.6023C351.967 88.6023 352.087 88.5928 352.189 88.5739C352.291 88.5549 352.371 88.5398 352.428 88.5284L352.734 89.9318C352.636 89.9697 352.496 90.0076 352.314 90.0455C352.132 90.0871 351.905 90.1098 351.632 90.1136C351.185 90.1212 350.768 90.0417 350.382 89.875C349.996 89.7083 349.683 89.4508 349.445 89.1023C349.206 88.7538 349.087 88.3163 349.087 87.7898V79.1818ZM359.983 86.3807V81.2727H361.688V90H360.017V88.4886H359.926C359.725 88.9545 359.403 89.3428 358.96 89.6534C358.521 89.9602 357.973 90.1136 357.318 90.1136C356.758 90.1136 356.261 89.9905 355.83 89.7443C355.402 89.4943 355.064 89.125 354.818 88.6364C354.576 88.1477 354.455 87.5436 354.455 86.8239V81.2727H356.153V86.6193C356.153 87.214 356.318 87.6875 356.648 88.0398C356.977 88.392 357.405 88.5682 357.932 88.5682C358.25 88.5682 358.566 88.4886 358.881 88.3295C359.199 88.1705 359.462 87.9299 359.67 87.608C359.883 87.286 359.987 86.8769 359.983 86.3807ZM367.237 90.1705C366.533 90.1705 365.904 89.9905 365.351 89.6307C364.802 89.267 364.37 88.75 364.055 88.0795C363.745 87.4053 363.589 86.5966 363.589 85.6534C363.589 84.7102 363.747 83.9034 364.061 83.233C364.379 82.5625 364.815 82.0492 365.368 81.6932C365.921 81.3371 366.548 81.1591 367.249 81.1591C367.79 81.1591 368.226 81.25 368.555 81.4318C368.889 81.6098 369.146 81.8182 369.328 82.0568C369.514 82.2955 369.658 82.5057 369.76 82.6875H369.862V78.3636H371.561V90H369.902V88.642H369.76C369.658 88.8277 369.51 89.0398 369.317 89.2784C369.127 89.517 368.866 89.7254 368.533 89.9034C368.199 90.0814 367.768 90.1705 367.237 90.1705ZM367.612 88.7216C368.101 88.7216 368.514 88.5928 368.851 88.3352C369.192 88.0739 369.449 87.7121 369.624 87.25C369.802 86.7879 369.891 86.25 369.891 85.6364C369.891 85.0303 369.804 84.5 369.629 84.0455C369.455 83.5909 369.199 83.2367 368.862 82.983C368.525 82.7292 368.108 82.6023 367.612 82.6023C367.101 82.6023 366.675 82.7348 366.334 83C365.993 83.2652 365.735 83.6269 365.561 84.0852C365.391 84.5436 365.305 85.0606 365.305 85.6364C365.305 86.2197 365.393 86.7443 365.567 87.2102C365.741 87.6761 365.999 88.0455 366.339 88.3182C366.684 88.5871 367.108 88.7216 367.612 88.7216ZM375.06 93.2727C374.806 93.2727 374.575 93.2519 374.366 93.2102C374.158 93.1723 374.003 93.1307 373.901 93.0852L374.31 91.6932C374.62 91.7765 374.897 91.8125 375.139 91.8011C375.382 91.7898 375.596 91.6989 375.781 91.5284C375.971 91.358 376.137 91.0795 376.281 90.6932L376.491 90.1136L373.298 81.2727H375.116L377.327 88.0455H377.418L379.628 81.2727H381.452L377.855 91.1648C377.688 91.6193 377.476 92.0038 377.219 92.3182C376.961 92.6364 376.654 92.875 376.298 93.0341C375.942 93.1932 375.529 93.2727 375.06 93.2727ZM387.283 90V81.2727H388.913V82.6932H389.021C389.203 82.2121 389.5 81.8371 389.913 81.5682C390.326 81.2955 390.821 81.1591 391.396 81.1591C391.98 81.1591 392.468 81.2955 392.862 81.5682C393.26 81.8409 393.554 82.2159 393.743 82.6932H393.834C394.042 82.2273 394.374 81.8561 394.828 81.5795C395.283 81.2992 395.824 81.1591 396.453 81.1591C397.245 81.1591 397.891 81.4072 398.391 81.9034C398.894 82.3996 399.146 83.1477 399.146 84.1477V90H397.447V84.3068C397.447 83.7159 397.286 83.2879 396.964 83.0227C396.643 82.7576 396.258 82.625 395.811 82.625C395.258 82.625 394.828 82.7955 394.521 83.1364C394.214 83.4735 394.061 83.9072 394.061 84.4375V90H392.368V84.1989C392.368 83.7254 392.22 83.3447 391.925 83.0568C391.629 82.7689 391.245 82.625 390.771 82.625C390.449 82.625 390.152 82.7102 389.879 82.8807C389.61 83.0473 389.393 83.2803 389.226 83.5795C389.063 83.8788 388.982 84.2254 388.982 84.6193V90H387.283ZM403.963 90.1932C403.41 90.1932 402.91 90.0909 402.463 89.8864C402.016 89.678 401.662 89.3769 401.401 88.983C401.143 88.589 401.014 88.1061 401.014 87.5341C401.014 87.0417 401.109 86.6364 401.298 86.3182C401.488 86 401.743 85.7481 402.065 85.5625C402.387 85.3769 402.747 85.2367 403.145 85.142C403.543 85.0473 403.948 84.9754 404.361 84.9261C404.884 84.8655 405.308 84.8163 405.634 84.7784C405.959 84.7367 406.196 84.6705 406.344 84.5795C406.491 84.4886 406.565 84.3409 406.565 84.1364V84.0966C406.565 83.6004 406.425 83.2159 406.145 82.9432C405.868 82.6705 405.455 82.5341 404.906 82.5341C404.334 82.5341 403.884 82.661 403.554 82.9148C403.228 83.1648 403.003 83.4432 402.878 83.75L401.281 83.3864C401.471 82.8561 401.747 82.428 402.111 82.1023C402.478 81.7727 402.901 81.5341 403.378 81.3864C403.855 81.2348 404.357 81.1591 404.884 81.1591C405.232 81.1591 405.601 81.2008 405.991 81.2841C406.385 81.3636 406.753 81.5114 407.094 81.7273C407.438 81.9432 407.721 82.2519 407.94 82.6534C408.16 83.0511 408.27 83.5682 408.27 84.2045V90H406.611V88.8068H406.543C406.433 89.0265 406.268 89.2424 406.048 89.4545C405.829 89.6667 405.546 89.8428 405.202 89.983C404.857 90.1231 404.444 90.1932 403.963 90.1932ZM404.332 88.8295C404.802 88.8295 405.204 88.7367 405.537 88.5511C405.874 88.3655 406.13 88.1231 406.304 87.8239C406.482 87.5208 406.571 87.197 406.571 86.8523V85.7273C406.51 85.7879 406.393 85.8447 406.219 85.8977C406.048 85.947 405.853 85.9905 405.634 86.0284C405.414 86.0625 405.2 86.0947 404.991 86.125C404.783 86.1515 404.609 86.1742 404.469 86.1932C404.139 86.2348 403.838 86.3049 403.565 86.4034C403.296 86.5019 403.08 86.6439 402.918 86.8295C402.759 87.0114 402.679 87.2538 402.679 87.5568C402.679 87.9773 402.834 88.2955 403.145 88.5114C403.455 88.7235 403.851 88.8295 404.332 88.8295ZM414.607 81.2727V82.6364H409.839V81.2727H414.607ZM411.118 79.1818H412.817V87.4375C412.817 87.767 412.866 88.0152 412.964 88.1818C413.063 88.3447 413.19 88.4564 413.345 88.517C413.504 88.5739 413.677 88.6023 413.862 88.6023C413.999 88.6023 414.118 88.5928 414.22 88.5739C414.322 88.5549 414.402 88.5398 414.459 88.5284L414.766 89.9318C414.667 89.9697 414.527 90.0076 414.345 90.0455C414.163 90.0871 413.936 90.1098 413.663 90.1136C413.216 90.1212 412.8 90.0417 412.413 89.875C412.027 89.7083 411.714 89.4508 411.476 89.1023C411.237 88.7538 411.118 88.3163 411.118 87.7898V79.1818ZM420.153 90.1761C419.294 90.1761 418.553 89.9924 417.932 89.625C417.314 89.2538 416.837 88.733 416.5 88.0625C416.167 87.3883 416 86.5985 416 85.6932C416 84.7992 416.167 84.0114 416.5 83.3295C416.837 82.6477 417.307 82.1155 417.909 81.733C418.515 81.3504 419.223 81.1591 420.034 81.1591C420.527 81.1591 421.004 81.2405 421.466 81.4034C421.928 81.5663 422.343 81.822 422.71 82.1705C423.078 82.5189 423.367 82.9716 423.58 83.5284C423.792 84.0814 423.898 84.7538 423.898 85.5455V86.1477H416.96V84.875H422.233C422.233 84.428 422.142 84.0322 421.96 83.6875C421.778 83.339 421.523 83.0644 421.193 82.8636C420.867 82.6629 420.485 82.5625 420.045 82.5625C419.568 82.5625 419.152 82.6799 418.795 82.9148C418.443 83.1458 418.17 83.4489 417.977 83.8239C417.788 84.1951 417.693 84.5985 417.693 85.0341V86.0284C417.693 86.6117 417.795 87.108 418 87.517C418.208 87.9261 418.498 88.2386 418.869 88.4545C419.241 88.6667 419.674 88.7727 420.17 88.7727C420.492 88.7727 420.786 88.7273 421.051 88.6364C421.316 88.5417 421.545 88.4015 421.739 88.2159C421.932 88.0303 422.08 87.8011 422.182 87.5284L423.79 87.8182C423.661 88.2917 423.43 88.7064 423.097 89.0625C422.767 89.4148 422.352 89.6894 421.852 89.8864C421.356 90.0795 420.79 90.1761 420.153 90.1761ZM425.783 90V81.2727H427.425V82.6591H427.516C427.675 82.1894 427.955 81.8201 428.357 81.5511C428.762 81.2784 429.22 81.142 429.732 81.142C429.838 81.142 429.963 81.1458 430.107 81.1534C430.254 81.161 430.37 81.1705 430.453 81.1818V82.8068C430.385 82.7879 430.264 82.767 430.089 82.7443C429.915 82.7178 429.741 82.7045 429.567 82.7045C429.165 82.7045 428.807 82.7898 428.493 82.9602C428.182 83.1269 427.936 83.3598 427.754 83.6591C427.572 83.9545 427.482 84.2917 427.482 84.6705V90H425.783ZM431.923 90V81.2727H433.622V90H431.923ZM432.781 79.9261C432.486 79.9261 432.232 79.8277 432.02 79.6307C431.812 79.4299 431.707 79.1913 431.707 78.9148C431.707 78.6345 431.812 78.3958 432.02 78.1989C432.232 77.9981 432.486 77.8977 432.781 77.8977C433.077 77.8977 433.329 77.9981 433.537 78.1989C433.749 78.3958 433.855 78.6345 433.855 78.9148C433.855 79.1913 433.749 79.4299 433.537 79.6307C433.329 79.8277 433.077 79.9261 432.781 79.9261ZM438.447 90.1932C437.894 90.1932 437.394 90.0909 436.947 89.8864C436.5 89.678 436.146 89.3769 435.885 88.983C435.627 88.589 435.499 88.1061 435.499 87.5341C435.499 87.0417 435.593 86.6364 435.783 86.3182C435.972 86 436.228 85.7481 436.55 85.5625C436.872 85.3769 437.232 85.2367 437.629 85.142C438.027 85.0473 438.432 84.9754 438.845 84.9261C439.368 84.8655 439.792 84.8163 440.118 84.7784C440.444 84.7367 440.68 84.6705 440.828 84.5795C440.976 84.4886 441.05 84.3409 441.05 84.1364V84.0966C441.05 83.6004 440.91 83.2159 440.629 82.9432C440.353 82.6705 439.94 82.5341 439.391 82.5341C438.819 82.5341 438.368 82.661 438.038 82.9148C437.713 83.1648 437.487 83.4432 437.362 83.75L435.766 83.3864C435.955 82.8561 436.232 82.428 436.595 82.1023C436.963 81.7727 437.385 81.5341 437.862 81.3864C438.339 81.2348 438.841 81.1591 439.368 81.1591C439.716 81.1591 440.086 81.2008 440.476 81.2841C440.87 81.3636 441.237 81.5114 441.578 81.7273C441.923 81.9432 442.205 82.2519 442.425 82.6534C442.644 83.0511 442.754 83.5682 442.754 84.2045V90H441.095V88.8068H441.027C440.917 89.0265 440.752 89.2424 440.533 89.4545C440.313 89.6667 440.031 89.8428 439.686 89.983C439.341 90.1231 438.929 90.1932 438.447 90.1932ZM438.817 88.8295C439.286 88.8295 439.688 88.7367 440.021 88.5511C440.358 88.3655 440.614 88.1231 440.788 87.8239C440.966 87.5208 441.055 87.197 441.055 86.8523V85.7273C440.995 85.7879 440.877 85.8447 440.703 85.8977C440.533 85.947 440.338 85.9905 440.118 86.0284C439.898 86.0625 439.684 86.0947 439.476 86.125C439.268 86.1515 439.093 86.1742 438.953 86.1932C438.624 86.2348 438.322 86.3049 438.05 86.4034C437.781 86.5019 437.565 86.6439 437.402 86.8295C437.243 87.0114 437.163 87.2538 437.163 87.5568C437.163 87.9773 437.319 88.2955 437.629 88.5114C437.94 88.7235 438.336 88.8295 438.817 88.8295ZM446.716 78.3636V90H445.017V78.3636H446.716ZM455.541 83.4034L454.001 83.6761C453.937 83.4792 453.835 83.2917 453.695 83.1136C453.558 82.9356 453.373 82.7898 453.138 82.6761C452.903 82.5625 452.609 82.5057 452.257 82.5057C451.776 82.5057 451.375 82.6136 451.053 82.8295C450.731 83.0417 450.57 83.3163 450.57 83.6534C450.57 83.9451 450.678 84.1799 450.893 84.358C451.109 84.536 451.458 84.6818 451.939 84.7955L453.325 85.1136C454.128 85.2992 454.727 85.5852 455.121 85.9716C455.515 86.358 455.712 86.8598 455.712 87.4773C455.712 88 455.56 88.4659 455.257 88.875C454.958 89.2803 454.539 89.5985 454.001 89.8295C453.467 90.0606 452.848 90.1761 452.143 90.1761C451.166 90.1761 450.369 89.9678 449.751 89.5511C449.134 89.1307 448.755 88.5341 448.615 87.7614L450.257 87.5114C450.359 87.9394 450.57 88.2633 450.888 88.483C451.206 88.6989 451.621 88.8068 452.132 88.8068C452.689 88.8068 453.134 88.6913 453.467 88.4602C453.801 88.2254 453.967 87.9394 453.967 87.6023C453.967 87.3295 453.865 87.1004 453.661 86.9148C453.46 86.7292 453.151 86.589 452.734 86.4943L451.257 86.1705C450.443 85.9848 449.84 85.6894 449.45 85.2841C449.064 84.8788 448.871 84.3655 448.871 83.7443C448.871 83.2292 449.015 82.7784 449.303 82.392C449.59 82.0057 449.988 81.7045 450.496 81.4886C451.003 81.2689 451.585 81.1591 452.24 81.1591C453.183 81.1591 453.926 81.3636 454.467 81.7727C455.009 82.178 455.367 82.7216 455.541 83.4034Z" fill="#363636"/>
</svg>
