<svg width="250" height="37" viewBox="0 0 250 37" fill="none" xmlns="http://www.w3.org/2000/svg">
<path d="M70.7216 27V9.54545H77.267C78.608 9.54545 79.733 9.77841 80.642 10.2443C81.5568 10.7102 82.2472 11.3636 82.7131 12.2045C83.1847 13.0398 83.4205 14.0142 83.4205 15.1278C83.4205 16.2472 83.1818 17.2187 82.7045 18.0426C82.233 18.8608 81.5369 19.4943 80.6165 19.9432C79.696 20.3864 78.5653 20.608 77.2244 20.608H72.5625V17.983H76.7983C77.5824 17.983 78.2244 17.875 78.7244 17.6591C79.2244 17.4375 79.5938 17.1165 79.8324 16.696C80.0767 16.2699 80.1989 15.7472 80.1989 15.1278C80.1989 14.5085 80.0767 13.9801 79.8324 13.5426C79.5881 13.0994 79.2159 12.7642 78.7159 12.5369C78.2159 12.304 77.571 12.1875 76.7812 12.1875H73.8835V27H70.7216ZM79.7386 19.0909L84.0597 27H80.5312L76.2869 19.0909H79.7386ZM91.8026 27.2557C90.4901 27.2557 89.3565 26.983 88.402 26.4375C87.4531 25.8864 86.723 25.108 86.2116 24.1023C85.7003 23.0909 85.4446 21.9006 85.4446 20.5312C85.4446 19.1847 85.7003 18.0028 86.2116 16.9858C86.7287 15.9631 87.4503 15.1676 88.3764 14.5994C89.3026 14.0256 90.3906 13.7386 91.6406 13.7386C92.4474 13.7386 93.2088 13.8693 93.9247 14.1307C94.6463 14.3864 95.2827 14.7841 95.8338 15.3239C96.3906 15.8636 96.8281 16.5511 97.1463 17.3864C97.4645 18.2159 97.6236 19.2045 97.6236 20.3523V21.2983H86.8935V19.2188H94.6662C94.6605 18.6278 94.5327 18.1023 94.2827 17.642C94.0327 17.1761 93.6832 16.8097 93.2344 16.5426C92.7912 16.2756 92.2741 16.142 91.6832 16.142C91.0526 16.142 90.4986 16.2955 90.0213 16.6023C89.544 16.9034 89.1719 17.3011 88.9048 17.7955C88.6435 18.2841 88.5099 18.821 88.5043 19.4062V21.2216C88.5043 21.983 88.6435 22.6364 88.9219 23.1818C89.2003 23.7216 89.5895 24.1364 90.0895 24.4261C90.5895 24.7102 91.1747 24.8523 91.8452 24.8523C92.294 24.8523 92.7003 24.7898 93.0639 24.6648C93.4276 24.5341 93.7429 24.3438 94.0099 24.0938C94.277 23.8438 94.4787 23.5341 94.6151 23.1648L97.4957 23.4886C97.3139 24.25 96.9673 24.9148 96.456 25.483C95.9503 26.0455 95.3026 26.483 94.5128 26.7955C93.723 27.1023 92.8196 27.2557 91.8026 27.2557ZM103.319 19.3295V27H100.234V13.9091H103.183V16.1335H103.336C103.637 15.4006 104.117 14.8182 104.776 14.3864C105.441 13.9545 106.262 13.7386 107.239 13.7386C108.143 13.7386 108.93 13.9318 109.6 14.3182C110.276 14.7045 110.799 15.2642 111.168 15.9972C111.543 16.7301 111.728 17.6193 111.722 18.6648V27H108.637V19.142C108.637 18.267 108.41 17.5824 107.955 17.0881C107.506 16.5937 106.884 16.3466 106.089 16.3466C105.549 16.3466 105.069 16.4659 104.648 16.7045C104.234 16.9375 103.907 17.2756 103.668 17.7188C103.435 18.1619 103.319 18.6989 103.319 19.3295ZM123.202 21.4943V13.9091H126.288V27H123.296V24.6733H123.16C122.864 25.4062 122.379 26.0057 121.702 26.4716C121.032 26.9375 120.205 27.1705 119.222 27.1705C118.364 27.1705 117.606 26.9801 116.947 26.5994C116.293 26.2131 115.782 25.6534 115.413 24.9205C115.043 24.1818 114.859 23.2898 114.859 22.2443V13.9091H117.944V21.767C117.944 22.5966 118.171 23.2557 118.626 23.7443C119.08 24.233 119.677 24.4773 120.415 24.4773C120.87 24.4773 121.31 24.3665 121.737 24.1449C122.163 23.9233 122.512 23.5938 122.785 23.1562C123.063 22.7131 123.202 22.1591 123.202 21.4943ZM132.273 22.892L132.264 19.1676H132.759L137.463 13.9091H141.068L135.281 20.3523H134.642L132.273 22.892ZM129.46 27V9.54545H132.545V27H129.46ZM137.676 27L133.415 21.0426L135.494 18.8693L141.366 27H137.676ZM146.891 27.2642C146.062 27.2642 145.315 27.1165 144.65 26.821C143.991 26.5199 143.468 26.0767 143.082 25.4915C142.701 24.9062 142.511 24.1847 142.511 23.3267C142.511 22.5881 142.647 21.9773 142.92 21.4943C143.192 21.0114 143.565 20.625 144.036 20.3352C144.508 20.0455 145.039 19.8267 145.63 19.679C146.227 19.5256 146.843 19.4148 147.479 19.3466C148.246 19.267 148.869 19.196 149.346 19.1335C149.823 19.0653 150.17 18.9631 150.386 18.8267C150.607 18.6847 150.718 18.4659 150.718 18.1705V18.1193C150.718 17.4773 150.528 16.9801 150.147 16.6278C149.766 16.2756 149.218 16.0994 148.502 16.0994C147.746 16.0994 147.147 16.2642 146.704 16.5938C146.266 16.9233 145.971 17.3125 145.817 17.7614L142.937 17.3523C143.164 16.5568 143.539 15.892 144.062 15.358C144.585 14.8182 145.224 14.4148 145.979 14.1477C146.735 13.875 147.57 13.7386 148.485 13.7386C149.116 13.7386 149.744 13.8125 150.369 13.9602C150.994 14.108 151.565 14.3523 152.082 14.6932C152.599 15.0284 153.013 15.4858 153.326 16.0653C153.644 16.6449 153.803 17.3693 153.803 18.2386V27H150.837V25.2017H150.735C150.548 25.5653 150.283 25.9062 149.942 26.2244C149.607 26.5369 149.184 26.7898 148.673 26.983C148.167 27.1705 147.573 27.2642 146.891 27.2642ZM147.692 24.9972C148.312 24.9972 148.849 24.875 149.303 24.6307C149.758 24.3807 150.107 24.0511 150.352 23.642C150.602 23.233 150.727 22.7869 150.727 22.304V20.7614C150.63 20.8409 150.465 20.9148 150.232 20.983C150.005 21.0511 149.749 21.1108 149.465 21.1619C149.181 21.2131 148.9 21.2585 148.621 21.2983C148.343 21.3381 148.102 21.3722 147.897 21.4006C147.437 21.4631 147.025 21.5653 146.661 21.7074C146.298 21.8494 146.011 22.0483 145.8 22.304C145.59 22.554 145.485 22.8778 145.485 23.2756C145.485 23.8438 145.692 24.2727 146.107 24.5625C146.522 24.8523 147.05 24.9972 147.692 24.9972ZM165.237 27H161.862L168.006 9.54545H171.91L178.063 27H174.688L170.026 13.125H169.89L165.237 27ZM165.347 20.1562H174.552V22.696H165.347V20.1562ZM185.521 32.1818C184.413 32.1818 183.461 32.0313 182.665 31.7301C181.87 31.4347 181.231 31.0369 180.748 30.5369C180.265 30.0369 179.93 29.483 179.742 28.875L182.521 28.2017C182.646 28.4574 182.827 28.7102 183.066 28.9602C183.305 29.2159 183.626 29.4261 184.029 29.5909C184.438 29.7614 184.952 29.8466 185.572 29.8466C186.447 29.8466 187.171 29.6335 187.745 29.2074C188.319 28.7869 188.606 28.0938 188.606 27.1278V24.6477H188.452C188.293 24.9659 188.06 25.2926 187.754 25.6278C187.452 25.9631 187.052 26.2443 186.552 26.4716C186.058 26.6989 185.435 26.8125 184.685 26.8125C183.68 26.8125 182.768 26.5767 181.95 26.1051C181.137 25.6278 180.489 24.9176 180.006 23.9744C179.529 23.0256 179.29 21.8381 179.29 20.4119C179.29 18.9744 179.529 17.7614 180.006 16.7727C180.489 15.7784 181.14 15.0256 181.958 14.5142C182.776 13.9972 183.688 13.7386 184.694 13.7386C185.461 13.7386 186.092 13.8693 186.586 14.1307C187.086 14.3864 187.484 14.696 187.779 15.0597C188.075 15.4176 188.299 15.7557 188.452 16.0739H188.623V13.9091H191.665V27.2131C191.665 28.3324 191.398 29.2585 190.864 29.9915C190.33 30.7244 189.6 31.2727 188.674 31.6364C187.748 32 186.697 32.1818 185.521 32.1818ZM185.546 24.392C186.2 24.392 186.756 24.233 187.217 23.9148C187.677 23.5966 188.026 23.1392 188.265 22.5426C188.504 21.946 188.623 21.2301 188.623 20.3949C188.623 19.571 188.504 18.8494 188.265 18.2301C188.032 17.6108 187.685 17.1307 187.225 16.7898C186.771 16.4432 186.211 16.2699 185.546 16.2699C184.859 16.2699 184.285 16.4489 183.825 16.8068C183.364 17.1648 183.018 17.6562 182.785 18.2812C182.552 18.9006 182.435 19.6051 182.435 20.3949C182.435 21.196 182.552 21.8977 182.785 22.5C183.023 23.0966 183.373 23.5625 183.833 23.8977C184.299 24.2273 184.87 24.392 185.546 24.392ZM200.623 27.2557C199.31 27.2557 198.177 26.983 197.222 26.4375C196.273 25.8864 195.543 25.108 195.032 24.1023C194.521 23.0909 194.265 21.9006 194.265 20.5312C194.265 19.1847 194.521 18.0028 195.032 16.9858C195.549 15.9631 196.271 15.1676 197.197 14.5994C198.123 14.0256 199.211 13.7386 200.461 13.7386C201.268 13.7386 202.029 13.8693 202.745 14.1307C203.467 14.3864 204.103 14.7841 204.654 15.3239C205.211 15.8636 205.648 16.5511 205.967 17.3864C206.285 18.2159 206.444 19.2045 206.444 20.3523V21.2983H195.714V19.2188H203.487C203.481 18.6278 203.353 18.1023 203.103 17.642C202.853 17.1761 202.504 16.8097 202.055 16.5426C201.612 16.2756 201.094 16.142 200.504 16.142C199.873 16.142 199.319 16.2955 198.842 16.6023C198.364 16.9034 197.992 17.3011 197.725 17.7955C197.464 18.2841 197.33 18.821 197.325 19.4062V21.2216C197.325 21.983 197.464 22.6364 197.742 23.1818C198.021 23.7216 198.41 24.1364 198.91 24.4261C199.41 24.7102 199.995 24.8523 200.665 24.8523C201.114 24.8523 201.521 24.7898 201.884 24.6648C202.248 24.5341 202.563 24.3438 202.83 24.0938C203.097 23.8438 203.299 23.5341 203.435 23.1648L206.316 23.4886C206.134 24.25 205.788 24.9148 205.276 25.483C204.771 26.0455 204.123 26.483 203.333 26.7955C202.543 27.1023 201.64 27.2557 200.623 27.2557ZM212.139 19.3295V27H209.054V13.9091H212.003V16.1335H212.156C212.457 15.4006 212.938 14.8182 213.597 14.3864C214.261 13.9545 215.082 13.7386 216.06 13.7386C216.963 13.7386 217.75 13.9318 218.42 14.3182C219.097 14.7045 219.619 15.2642 219.989 15.9972C220.364 16.7301 220.548 17.6193 220.543 18.6648V27H217.457V19.142C217.457 18.267 217.23 17.5824 216.776 17.0881C216.327 16.5937 215.705 16.3466 214.909 16.3466C214.369 16.3466 213.889 16.4659 213.469 16.7045C213.054 16.9375 212.727 17.2756 212.489 17.7188C212.256 18.1619 212.139 18.6989 212.139 19.3295ZM229.389 27.2557C228.082 27.2557 226.96 26.9688 226.023 26.3949C225.091 25.821 224.372 25.0284 223.866 24.017C223.366 23 223.116 21.8295 223.116 20.5057C223.116 19.1761 223.372 18.0028 223.884 16.9858C224.395 15.9631 225.116 15.1676 226.048 14.5994C226.986 14.0256 228.094 13.7386 229.372 13.7386C230.435 13.7386 231.375 13.9347 232.193 14.3267C233.017 14.7131 233.673 15.2614 234.162 15.9716C234.651 16.6761 234.929 17.5 234.997 18.4432H232.048C231.929 17.8125 231.645 17.2869 231.196 16.8665C230.753 16.4403 230.159 16.2273 229.415 16.2273C228.784 16.2273 228.23 16.3977 227.753 16.7386C227.276 17.0739 226.903 17.5568 226.636 18.1875C226.375 18.8182 226.244 19.5739 226.244 20.4545C226.244 21.3466 226.375 22.1136 226.636 22.7557C226.898 23.392 227.264 23.8835 227.736 24.2301C228.213 24.571 228.773 24.7415 229.415 24.7415C229.869 24.7415 230.276 24.6562 230.634 24.4858C230.997 24.3097 231.301 24.0568 231.545 23.7273C231.79 23.3977 231.957 22.9972 232.048 22.5256H234.997C234.923 23.4517 234.651 24.2727 234.179 24.9886C233.707 25.6989 233.065 26.2557 232.253 26.6591C231.44 27.0568 230.486 27.2557 229.389 27.2557ZM239.448 31.9091C239.028 31.9091 238.638 31.875 238.281 31.8068C237.928 31.7443 237.647 31.6705 237.437 31.5852L238.153 29.1818C238.602 29.3125 239.002 29.375 239.354 29.3693C239.707 29.3636 240.016 29.2528 240.283 29.0369C240.556 28.8267 240.786 28.4744 240.974 27.9801L241.238 27.2727L236.491 13.9091H239.763L242.781 23.7955H242.917L245.942 13.9091H249.224L243.982 28.5852C243.738 29.2784 243.414 29.8722 243.011 30.3665C242.607 30.8665 242.113 31.2472 241.528 31.5085C240.948 31.7756 240.255 31.9091 239.448 31.9091Z" fill="#F7F7F7"/>
<path d="M1.59375 7H17.6562C21.4896 7 24.3281 7.73958 26.1719 9.21875C28.026 10.6979 28.9531 13.0833 28.9531 16.375C28.9531 20.6146 27.3646 23.3906 24.1875 24.7031L29.5312 31H20.1562L15.7188 25.75H9.46875V31H1.59375V7ZM17.6562 13.9688H9.46875V18.7812H17.6562C19.9479 18.7812 21.0938 17.9792 21.0938 16.375C21.0938 14.7708 19.9479 13.9688 17.6562 13.9688ZM31.4375 7H41.4531L61.8438 31H52.4688L49.8125 27.8594H39.3125V31H31.4375V7ZM39.3125 21.5312H44.4375L39.3125 15.5156V21.5312Z" fill="#F1F1F1"/>
</svg>
