<svg width="1155" height="209" viewBox="0 0 1155 209" fill="none" xmlns="http://www.w3.org/2000/svg">
<path d="M989.318 0H164.193L0.00390625 132.997H1153.54L989.318 0Z" fill="white"/>
<path d="M989.318 0H934.318L1076.61 132.997H1153.54L989.318 0Z" fill="#FF213D"/>
<path d="M879.294 0H824.312L922.82 132.997H999.731L879.294 0Z" fill="#FF213D"/>
<path d="M769.289 0H714.287L769.028 132.997H845.915L769.289 0Z" fill="#FF213D"/>
<path d="M659.258 0H604.279L615.212 132.997H692.117L659.258 0Z" fill="#FF213D"/>
<path d="M494.257 0L461.41 132.997H538.321L549.262 0H494.257Z" fill="#FF213D"/>
<path d="M384.226 0L307.609 132.997H384.497L439.252 0H384.226Z" fill="#FF213D"/>
<path d="M274.214 0L153.801 132.997H230.709L329.225 0H274.214Z" fill="#FF213D"/>
<path d="M164.193 0L0.00390625 132.997H76.8913L219.195 0H164.193Z" fill="#FF213D"/>
<path d="M76.9864 167.91C76.9864 190.597 59.7496 209 38.4874 209C17.2251 209 0 190.597 0 167.91V132.994H76.9835L76.9864 167.91Z" fill="#AF172A"/>
<path d="M153.991 167.91C153.991 190.597 136.754 209 115.492 209C94.2299 209 76.9844 190.597 76.9844 167.91V132.994H153.991V167.91Z" fill="#DBDBDB"/>
<path d="M230.99 167.91C230.99 190.597 213.753 209 192.491 209C171.229 209 153.992 190.597 153.992 167.91V132.994H230.987V167.91H230.99Z" fill="#AF172A"/>
<path d="M308.005 167.91C308.005 190.597 290.771 209 269.5 209C248.226 209 230.992 190.597 230.992 167.91V132.994H308.008V167.91H308.005Z" fill="#DBDBDB"/>
<path d="M385.001 167.91C385.001 190.597 367.761 209 346.499 209C325.225 209 308 190.597 308 167.91V132.994H384.998V167.91H385.001Z" fill="#AF172A"/>
<path d="M462.004 167.91C462.004 190.597 444.767 209 423.499 209C402.234 209 385 190.597 385 167.91V132.994H462.004V167.91Z" fill="#DBDBDB"/>
<path d="M538.998 167.91C538.998 190.597 521.761 209 500.499 209C479.237 209 462 190.597 462 167.91V132.994H538.995V167.91H538.998Z" fill="#AF172A"/>
<path d="M616.012 167.91C616.012 190.597 598.757 209 577.507 209C556.239 209 539.002 190.597 539.002 167.91V132.994H616.012V167.91Z" fill="#DBDBDB"/>
<path d="M692.99 167.91C692.99 190.597 675.753 209 654.497 209C633.247 209 616.01 190.597 616.01 167.91V132.994H692.987V167.91H692.99Z" fill="#AF172A"/>
<path d="M770.013 167.91C770.013 190.597 752.793 209 731.499 209C710.231 209 692.994 190.597 692.994 167.91V132.994H770.013V167.91Z" fill="#DBDBDB"/>
<path d="M847.003 167.91C847.003 190.597 829.766 209 808.516 209C787.242 209 770.014 190.597 770.014 167.91V132.994H847.003V167.91Z" fill="#AF172A"/>
<path d="M924.015 167.91C924.015 190.597 906.785 209 885.508 209C864.24 209 847 190.597 847 167.91V132.994H924.018V167.91H924.015Z" fill="#DBDBDB"/>
<path d="M1001.01 167.91C1001.01 190.597 983.76 209 962.507 209C941.256 209 924.02 190.597 924.02 167.91V132.994H1001.01V167.91Z" fill="#AF172A"/>
<path d="M1078 167.91C1078 190.597 1060.77 209 1039.5 209C1018.24 209 1001.01 190.597 1001.01 167.91V132.994H1078V167.91Z" fill="#DBDBDB"/>
<path d="M1155 167.91C1155 190.597 1137.79 209 1116.51 209C1095.24 209 1078.01 190.597 1078.01 167.91V132.994H1155V167.91Z" fill="#AF172A"/>
</svg>
